<svg width="223" height="24" viewBox="0 0 223 24" fill="none" xmlns="http://www.w3.org/2000/svg">
<path d="M95.852 14.8098C96.207 13.946 96.384 12.8998 96.384 11.6808H98.472C98.472 13.5285 98.088 15.0833 97.33 16.3359C97.671 16.6574 98.002 16.8782 98.323 16.9982C98.645 17.1181 99.029 17.1757 99.47 17.1757H99.979V19.1097H99.571C99.149 19.1097 98.774 19.0953 98.453 19.057C98.131 19.0234 97.834 18.9562 97.56 18.8554C97.287 18.7546 97.032 18.6202 96.797 18.4475C96.562 18.2795 96.303 18.0635 96.034 17.8092C94.849 18.793 93.313 19.2873 91.4271 19.2873C89.7666 19.2873 88.4757 18.9082 87.559 18.1547C86.6424 17.4013 86.1865 16.3359 86.1865 14.9634C86.1865 13.9988 86.4361 13.1637 86.9352 12.4679C87.4343 11.772 88.2549 11.1289 89.3923 10.5339C88.8836 9.93879 88.5141 9.38209 88.2837 8.85419C88.0533 8.32629 87.943 7.7936 87.943 7.2513C87.943 6.2339 88.2885 5.41329 88.9844 4.78459C89.6802 4.15589 90.5968 3.84399 91.7342 3.84399C92.872 3.84399 93.788 4.15109 94.484 4.76059C95.18 5.37009 95.525 6.18589 95.525 7.20329C95.525 7.96639 95.295 8.64299 94.839 9.23809C94.378 9.83319 93.625 10.4235 92.574 11.0186L95.857 14.8098H95.852ZM90.6112 11.9352C89.8818 12.3095 89.3539 12.7174 89.0228 13.1589C88.6916 13.6004 88.5285 14.1187 88.5285 14.709C88.5285 15.5585 88.8356 16.2207 89.4451 16.7054C90.0545 17.1901 90.8704 17.4301 91.8878 17.4301C92.972 17.4301 93.879 17.1325 94.609 16.5375L90.616 11.9304L90.6112 11.9352ZM91.3983 9.66999C92.128 9.28129 92.636 8.907 92.924 8.5519C93.212 8.1967 93.356 7.76959 93.356 7.28009C93.356 6.73779 93.217 6.32509 92.934 6.04679C92.656 5.76839 92.262 5.62919 91.7486 5.62919C91.2351 5.62919 90.8368 5.75879 90.5392 6.02279C90.2417 6.28669 90.0929 6.65619 90.0929 7.13129C90.0929 7.48649 90.1889 7.86079 90.3857 8.24949C90.5824 8.63819 90.9136 9.1133 91.3887 9.6748L91.3983 9.66999Z" fill="#333333"/>
<path d="M0 4.3527H13.2309V6.949H2.8746V12.2903H11.7048V14.8866H2.8746V20.8422H13.4613V23.4385H0V4.3527ZM16.7198 4.3527H20.3335L29.4949 19.6473V4.3527H32.2927V23.4385H28.679L19.5177 8.144V23.4385H16.7198V4.3527ZM45.2165 13.4613H53.538V23.4385H51.4505L51.2201 20.3335C50.9466 20.895 50.5818 21.3989 50.1259 21.8452C49.6652 22.2963 49.1373 22.6755 48.5374 22.9922C47.9328 23.3041 47.2753 23.5537 46.5506 23.7313C45.8308 23.9088 45.0725 24 44.2759 24C42.9706 24 41.7804 23.7649 40.715 23.2993C39.6448 22.8338 38.7282 22.1668 37.9652 21.3029C37.2021 20.4391 36.607 19.3977 36.1847 18.1836C35.7624 16.9694 35.5513 15.6161 35.5513 14.1236C35.5513 12.6311 35.7768 11.177 36.2279 9.91C36.679 8.6479 37.3173 7.5633 38.1475 6.6659C38.9778 5.7684 39.976 5.0726 41.1373 4.5783C42.2987 4.0888 43.5944 3.8392 45.0197 3.8392C46.1235 3.8392 47.1409 3.988 48.0719 4.2855C49.0029 4.5831 49.8284 5.0102 50.5386 5.5717C51.2489 6.1332 51.8344 6.805 52.2951 7.5969C52.7558 8.3839 53.0677 9.2717 53.2357 10.2556H50.3083C49.9867 9.1038 49.3437 8.1968 48.3887 7.5441C47.4289 6.8914 46.2723 6.5651 44.9142 6.5651C43.964 6.5651 43.1001 6.7283 42.3179 7.0594C41.5356 7.3905 40.8686 7.8608 40.3071 8.4703C39.7456 9.0798 39.3137 9.8092 39.0114 10.6587C38.7042 11.5081 38.5554 12.4583 38.5554 13.5093V14.3251C38.5554 15.4097 38.6994 16.3839 38.9874 17.2382C39.2753 18.0972 39.6928 18.8218 40.2351 19.4121C40.7774 20.0072 41.4349 20.4631 42.2075 20.7846C42.9802 21.1062 43.8488 21.2693 44.8134 21.2693C45.7108 21.2693 46.5458 21.135 47.3185 20.8614C48.0911 20.5927 48.7582 20.2184 49.3149 19.7433C49.8764 19.2681 50.3179 18.7067 50.6394 18.0636C50.9609 17.4205 51.1241 16.7151 51.1241 15.952H45.2213V13.4565L45.2165 13.4613ZM57.2285 4.3527H70.4594V6.949H60.1031V12.2903H68.9333V14.8866H60.1031V20.8422H70.6898V23.4385H57.2285V4.3527ZM73.9483 4.3527H76.823V20.8422H85.9555V23.4385H73.9435V4.3527H73.9483ZM100.439 4.3527H103.544L108.914 20.2568L114.284 4.3527H117.212L110.57 23.4385H107.11L100.444 4.3527H100.439ZM127.309 23.9952C125.936 23.9952 124.679 23.7505 123.542 23.2562C122.404 22.7667 121.425 22.0708 120.605 21.183C119.779 20.2903 119.146 19.2346 118.695 18.0012C118.243 16.7726 118.018 15.4097 118.018 13.9172C118.018 12.4247 118.248 11.0618 118.704 9.8332C119.165 8.6047 119.798 7.5441 120.614 6.6515C121.43 5.7588 122.404 5.0678 123.542 4.5783C124.679 4.0888 125.936 3.8392 127.309 3.8392C128.681 3.8392 129.939 4.084 131.076 4.5783C132.213 5.0726 133.188 5.7636 134.003 6.6515C134.819 7.5441 135.453 8.6047 135.913 9.8332C136.374 11.0618 136.6 12.4247 136.6 13.9172C136.6 15.4097 136.374 16.7726 135.923 18.0012C135.472 19.2298 134.838 20.2903 134.013 21.183C133.192 22.0756 132.209 22.7667 131.076 23.2562C129.939 23.7457 128.686 23.9952 127.309 23.9952ZM127.309 21.2741C128.259 21.2741 129.118 21.111 129.891 20.7798C130.663 20.4487 131.321 19.9784 131.863 19.3689C132.405 18.7594 132.833 18.03 133.135 17.1806C133.442 16.3311 133.596 15.3905 133.596 14.3539V13.4901C133.596 12.4535 133.442 11.5129 133.135 10.6635C132.828 9.814 132.401 9.0846 131.849 8.4751C131.297 7.8656 130.635 7.3953 129.862 7.0642C129.089 6.7331 128.24 6.5699 127.304 6.5699C126.368 6.5699 125.519 6.7331 124.746 7.0642C123.973 7.3953 123.311 7.8656 122.759 8.4751C122.207 9.0846 121.78 9.814 121.473 10.6635C121.166 11.5129 121.017 12.4535 121.017 13.4901V14.3539C121.017 15.3905 121.171 16.3311 121.473 17.1806C121.78 18.03 122.203 18.7594 122.745 19.3689C123.287 19.9784 123.949 20.4487 124.732 20.7798C125.514 21.111 126.368 21.2741 127.299 21.2741H127.309ZM123.11 0H125.907V2.7211H123.11V0ZM128.705 0H131.503V2.7211H128.705V0ZM139.849 4.3527H142.723V20.8422H151.856V23.4385H139.844V4.3527H139.849ZM154.711 4.3527H157.586V13.7397L166.824 4.3527H170.438L162.726 12.0888L170.74 23.4385H167.256L160.744 14.0756L157.586 17.2574V23.4385H154.711V4.3527ZM173.135 4.3527H186.366V6.949H176.009V12.2903H184.84V14.8866H176.009V20.8422H186.596V23.4385H173.135V4.3527ZM189.855 4.3527H198.685C199.582 4.3527 200.393 4.4775 201.113 4.7223C201.833 4.967 202.447 5.3173 202.956 5.7636C203.465 6.2148 203.858 6.7523 204.141 7.3809C204.42 8.0096 204.559 8.7151 204.559 9.4925C204.559 10.6107 204.276 11.5753 203.705 12.3815C203.138 13.1878 202.327 13.7876 201.276 14.1764C201.939 14.3635 202.442 14.6803 202.788 15.1314C203.134 15.5825 203.402 16.2448 203.589 17.1278L204.861 23.4385H201.91L200.763 17.5357C200.696 17.147 200.595 16.8254 200.47 16.5807C200.341 16.3359 200.173 16.1392 199.961 15.9952C199.75 15.8512 199.481 15.7505 199.16 15.6881C198.838 15.6257 198.431 15.5969 197.941 15.5969H192.724V23.4337H189.85V4.3527H189.855ZM198.075 13.183C199.16 13.183 200.033 12.8998 200.696 12.3287C201.358 11.7624 201.689 10.9946 201.689 10.0252C201.689 9.0558 201.363 8.2927 200.71 7.7217C200.057 7.1554 199.179 6.8674 198.075 6.8674H192.734V13.1782H198.075V13.183ZM209.703 17.5069C209.958 20.1368 211.714 21.4517 214.973 21.4517C217.905 21.4517 219.374 20.4007 219.374 18.2987C219.374 17.5501 219.172 16.9694 218.764 16.5423C218.356 16.12 217.651 15.7696 216.652 15.5009L211.892 14.1524C210.399 13.7301 209.3 13.1254 208.595 12.3479C207.889 11.5657 207.539 10.5483 207.539 9.2957C207.539 7.5633 208.149 6.2244 209.372 5.2741C210.591 4.3239 212.314 3.8488 214.536 3.8488C216.892 3.8488 218.692 4.3911 219.93 5.4757C221.168 6.5603 221.821 8.1584 221.888 10.2603H219.062C218.942 8.8878 218.529 7.8992 217.828 7.2945C217.123 6.6947 216.009 6.3923 214.483 6.3923C211.82 6.3923 210.49 7.2849 210.49 9.0654C210.49 9.7085 210.678 10.2268 211.052 10.6155C211.426 11.0042 212.06 11.3257 212.962 11.5849L217.718 12.9334C219.364 13.4085 220.544 14.0372 221.255 14.8146C221.965 15.5969 222.325 16.6575 222.325 17.9964C222.325 19.9112 221.677 21.3941 220.377 22.4355C219.081 23.4769 217.233 24 214.843 24C212.453 24 210.471 23.4433 209.104 22.3347C207.736 21.2262 206.997 19.6185 206.877 17.5117H209.703V17.5069Z" fill="black"/>
</svg>