<svg width="128" height="54" viewBox="0 0 128 54" fill="none" xmlns="http://www.w3.org/2000/svg">
<path d="M71.83 9.37012H60.75V44.6701H71.83V9.37012Z" fill="black"/>
<path d="M75.61 9.36011H100.3V17.8601H86.68V23.5701H98.8V32.0701H86.68V44.6601H75.61V9.36011Z" fill="black"/>
<path d="M127.04 43.7699C124.486 44.6507 121.811 45.1297 119.11 45.1899C109.54 45.1899 101.87 39.0199 101.87 26.4299C101.87 14.6099 109.87 8.68994 119.11 8.68994C121.761 8.72333 124.398 9.08611 126.96 9.76994V19.0699C125.209 18.3102 123.336 17.87 121.43 17.7699C116.72 17.7699 113.17 20.8499 113.17 26.6199C113.17 32.6799 116.47 35.7599 121.05 35.7599C123.122 35.7206 125.164 35.2578 127.05 34.3999L127.04 43.7699Z" fill="black"/>
<mask id="mask0_29_173" style="mask-type:luminance" maskUnits="userSpaceOnUse" x="0" y="0" width="54" height="54">
<path d="M33.08 44.07C36.4312 44.0679 39.7615 43.5415 42.95 42.51C43.7 42.26 44.42 41.98 45.09 41.68C44.34 43.6338 43.092 45.3575 41.47 46.68C38.2799 49.0303 34.5669 50.5711 30.65 51.17C31.8006 48.9692 32.6195 46.6104 33.08 44.17M16.42 48.98C16.3429 48.9174 16.2591 48.8638 16.17 48.82C14.78 48.14 14.17 45.04 14.94 40.29C17.7195 41.5294 20.6223 42.4713 23.6 43.1C25.8699 43.5814 28.1733 43.889 30.49 44.02C29.38 48.84 27.96 51.37 27.02 51.37H26.83C23.2181 51.346 19.6563 50.523 16.4 48.96M3.49 33.63C3.27413 32.815 3.13683 31.9812 3.08 31.14C3.97902 32.407 5.01162 33.5737 6.16 34.62C8.10085 36.3931 10.262 37.9089 12.59 39.13C12.0988 41.5346 11.9908 44.0017 12.27 46.44C8.03003 43.2366 4.94808 38.7401 3.49 33.63ZM34.66 26.89V23.95C37.5976 23.8019 40.4631 22.988 43.04 21.57C45.1508 25.6538 46.2807 30.1734 46.34 34.77C46.3399 35.963 46.2395 37.1538 46.04 38.33C44.8135 39.066 43.5088 39.663 42.15 40.11C39.3697 41.009 36.4716 41.4909 33.55 41.54C34.3144 36.6879 34.6856 31.7819 34.66 26.87M24.12 40.65C21.1233 40.0233 18.2078 39.057 15.43 37.77C16.5684 32.9216 18.27 28.223 20.5 23.77C20.8667 23.01 21.2467 22.26 21.64 21.52C23.5082 22.3528 25.459 22.9863 27.46 23.41C28.9914 23.7296 30.5468 23.9202 32.11 23.98V26.88C32.1521 31.7841 31.7674 36.6826 30.96 41.52C28.6459 41.4222 26.3442 41.1278 24.08 40.64M7.83 32.77C5.91614 31.1051 4.4281 29.0068 3.49 26.65C4.16872 24.1492 5.34183 21.8098 6.94 19.77C8.60822 17.6014 10.5939 15.6966 12.83 14.12C13.5602 15.407 14.4882 16.5712 15.58 17.57C16.757 18.6516 18.0518 19.5975 19.44 20.39C19.04 21.14 18.65 21.9 18.27 22.68C16.0804 27.1153 14.3707 31.7717 13.17 36.57C11.2481 35.5156 9.45597 34.2403 7.83 32.77ZM32.92 9.47C35.9018 11.7143 38.4903 14.438 40.58 17.53C40.99 18.14 41.38 18.75 41.75 19.38C39.5054 20.5787 37.0219 21.2619 34.48 21.38C34.3138 17.3419 33.7918 13.3264 32.92 9.38M27.92 20.86C26.175 20.5227 24.4693 20.0066 22.83 19.32C24.8881 15.6058 27.3788 12.1484 30.25 9.02C31.2309 13.1047 31.8202 17.2735 32.01 21.47C30.6641 21.4203 29.3253 21.2496 28.01 20.96M17.27 15.77C16.3207 14.9094 15.523 13.8952 14.91 12.77C17.3296 11.3155 19.9235 10.1731 22.63 9.37C24.2702 8.88699 25.9405 8.51284 27.63 8.25C24.9563 11.3317 22.6104 14.683 20.63 18.25C19.4203 17.5523 18.2932 16.7204 17.27 15.77ZM11.83 7.77C11.8084 7.9018 11.7784 8.03207 11.74 8.16C11.4898 9.35404 11.5206 10.5899 11.83 11.77C9.18698 13.5605 6.85311 15.7694 4.92 18.31C4.36223 19.0425 3.84801 19.8071 3.38 20.6C4.74896 15.5283 7.71119 11.0306 11.83 7.77ZM14.19 8.68C14.5189 7.30492 15.3228 6.09017 16.46 5.25C19.7469 4.39082 23.2235 4.61886 26.37 5.9C22.0546 6.63933 17.9019 8.12847 14.1 10.3C14.0398 9.75875 14.0702 9.21125 14.19 8.68ZM34.53 5.37C35.236 4.89044 36.0118 4.52277 36.83 4.28C38.1298 4.80887 39.3673 5.47959 40.52 6.28C38.5529 5.79616 36.5435 5.50478 34.52 5.41M30.35 2.67C31.4301 2.78836 32.5021 2.97203 33.56 3.22C32.8051 3.62889 32.0859 4.10055 31.41 4.63C31.1187 3.93224 30.7639 3.26276 30.35 2.63M27.63 3.63C26.5369 3.21222 25.4137 2.87793 24.27 2.63C25.1632 2.52992 26.0612 2.47984 26.96 2.48C27.39 2.48 27.91 3 28.47 3.99C28.19 3.87 27.91 3.75 27.63 3.65M0.039999 26.94C0.0318305 29.4376 0.368337 31.9244 1.04 34.33L1.16 34.8V34.89C2.39243 38.9375 4.56119 42.6377 7.49049 45.6906C10.4198 48.7435 14.0272 51.0632 18.0203 52.4618C22.0135 53.8604 26.2799 54.2984 30.474 53.7404C34.668 53.1824 38.6715 51.644 42.16 49.25L42.29 49.18C42.55 49 42.8 48.82 43.04 48.63C48.0611 44.9059 51.6343 39.5549 53.15 33.49C53.24 33.2 53.31 32.91 53.38 32.62V32.42C54.4966 27.052 53.9525 21.4712 51.82 16.42C51.6774 16.1293 51.4283 15.9046 51.1245 15.7926C50.8207 15.6806 50.4854 15.6899 50.1882 15.8186C49.891 15.9472 49.6548 16.1853 49.5285 16.4835C49.4022 16.7817 49.3956 17.1171 49.51 17.42C51.5607 22.2714 51.9887 27.6556 50.73 32.77C50.3493 34.0033 49.7004 35.137 48.83 36.09V34.77C48.7492 29.6485 47.4501 24.6198 45.04 20.1C46.782 18.6766 47.9708 16.6883 48.4 14.48C48.4295 14.3185 48.427 14.1527 48.3925 13.9922C48.358 13.8316 48.2922 13.6795 48.1988 13.5444C48.1055 13.4092 47.9865 13.2938 47.8486 13.2047C47.7106 13.1156 47.5565 13.0545 47.395 13.025C47.2335 12.9955 47.0677 12.998 46.9072 13.0325C46.7466 13.067 46.5945 13.1328 46.4594 13.2262C46.3242 13.3195 46.2088 13.4385 46.1197 13.5764C46.0306 13.7144 45.9695 13.8685 45.94 14.03C45.6664 15.5088 44.927 16.8613 43.83 17.89C43.47 17.29 43.1 16.7 42.71 16.13C40.59 13.001 37.9994 10.2183 35.03 7.88C38.5511 8.0376 41.9936 8.97335 45.11 10.62C45.333 10.7475 45.5889 10.806 45.8452 10.7882C46.1014 10.7704 46.3467 10.6771 46.55 10.52C46.7949 10.3024 46.9455 9.99804 46.9697 9.67135C46.994 9.34466 46.8901 9.02136 46.68 8.77C42.68 3.11 35.68 0 27 0C19.8392 0 12.9716 2.84464 7.90812 7.90812C2.84464 12.9716 0 19.8392 0 27" fill="white"/>
</mask>
<g mask="url(#mask0_29_173)">
<path d="M53.96 -0.0200195H0.039978V53.9H53.96V-0.0200195Z" fill="black"/>
</g>
</svg>
