<?xml version="1.0" encoding="UTF-8"?> <svg xmlns="http://www.w3.org/2000/svg" width="20" height="20" viewBox="0 0 20 20" fill="none"><g clip-path="url(#clip0_927_17871)"><path d="M16.6668 4.99992V14.9999M15.0002 3.33325H5.00016M15.0002 16.6666H5.00016M3.3335 14.9999V4.99992" stroke="#4A5568" stroke-width="1.5" stroke-linecap="round" stroke-linejoin="round"></path><path d="M18.3333 3.33341C18.3333 4.25389 17.5871 5.00008 16.6667 5.00008C15.7462 5.00008 15 4.25389 15 3.33341C15 2.41294 15.7462 1.66675 16.6667 1.66675C17.5871 1.66675 18.3333 2.41294 18.3333 3.33341Z" stroke="#4A5568" stroke-width="1.5"></path><path d="M4.99984 3.33341C4.99984 4.25389 4.25365 5.00008 3.33317 5.00008C2.4127 5.00008 1.6665 4.25389 1.6665 3.33341C1.6665 2.41294 2.4127 1.66675 3.33317 1.66675C4.25365 1.66675 4.99984 2.41294 4.99984 3.33341Z" stroke="#4A5568" stroke-width="1.5"></path><path d="M18.3333 16.6667C18.3333 17.5871 17.5871 18.3333 16.6667 18.3333C15.7462 18.3333 15 17.5871 15 16.6667C15 15.7462 15.7462 15 16.6667 15C17.5871 15 18.3333 15.7462 18.3333 16.6667Z" stroke="#4A5568" stroke-width="1.5"></path><path d="M4.99984 16.6667C4.99984 17.5871 4.25365 18.3333 3.33317 18.3333C2.4127 18.3333 1.6665 17.5871 1.6665 16.6667C1.6665 15.7462 2.4127 15 3.33317 15C4.25365 15 4.99984 15.7462 4.99984 16.6667Z" stroke="#4A5568" stroke-width="1.5"></path></g><defs><clipPath id="clip0_927_17871"><rect width="20" height="20" fill="white"></rect></clipPath></defs></svg> 