<?xml version="1.0" encoding="UTF-8"?> <svg xmlns="http://www.w3.org/2000/svg" width="20" height="18" viewBox="0 0 20 18" fill="none"><path d="M4.99984 15.6665L4.1665 16.4998M14.9998 15.6665L15.8332 16.4998" stroke="#415466" stroke-width="1.5" stroke-linecap="round"></path><path d="M2.5 9V9.83333C2.5 12.5832 2.5 13.9581 3.35427 14.8124C4.20854 15.6667 5.58347 15.6667 8.33333 15.6667H11.6667C14.4165 15.6667 15.7915 15.6667 16.6457 14.8124C17.5 13.9581 17.5 12.5832 17.5 9.83333V9" stroke="#415466" stroke-width="1.5" stroke-linecap="round" stroke-linejoin="round"></path><path d="M1.6665 9H18.3332" stroke="#415466" stroke-width="1.5" stroke-linecap="round"></path><path d="M3.3335 9V3.60284C3.3335 2.44147 4.27497 1.5 5.43633 1.5C6.36821 1.5 7.18895 2.11332 7.45299 3.00701L7.50016 3.16667" stroke="#415466" stroke-width="1.5" stroke-linecap="round"></path><path d="M6.6665 3.99992L8.74984 2.33325" stroke="#415466" stroke-width="1.5" stroke-linecap="round"></path></svg> 