<?xml version="1.0" encoding="UTF-8"?> <svg xmlns="http://www.w3.org/2000/svg" xmlns:xlink="http://www.w3.org/1999/xlink" version="1.1" id="Layer_1" x="0px" y="0px" viewBox="0 0 1920 540" style="enable-background:new 0 0 1920 540;" xml:space="preserve"> <style type="text/css"> .st0{display:none;} .st1{display:inline;} .st2{display:inline;fill:#FFFFFF;} .st3{fill:none;} .st4{fill:#ED1B24;} .st5{fill:#FFFFFF;stroke:#000000;stroke-width:0.25;stroke-miterlimit:10;} .st6{fill:#FFFFFF;} .st7{fill:#FFFFFF;stroke:#FFFFFF;stroke-width:0.25;stroke-miterlimit:10;} </style> <g class="st0"> <rect x="-7.5" y="-539.5" class="st1" width="1928" height="480"></rect> <path class="st2" d="M1920-539v479H-7v-479H1920 M1921-540H-8v481h1929V-540L1921-540z"></path> </g> <g> <g> <polygon points="396.51,336.77 437.28,336.77 437.28,346.81 423.04,346.81 423.04,384.31 410.62,384.31 410.62,346.81 396.51,346.81 "></polygon> <path d="M477.36,361.18v23.13h-12.08v-19.74c0-2.08-0.56-3.73-1.69-4.96c-1.13-1.21-2.64-1.83-4.54-1.83 c-2.22,0.06-3.97,0.85-5.26,2.42c-1.29,1.55-1.94,3.55-1.94,6.01v18.11h-12.08v-50.32h12.08v19.62c1.11-1.79,2.48-3.23,4.13-4.29 c2.26-1.45,4.94-2.18,8-2.18c2.72,0,5.06,0.58,7.06,1.73c2,1.15,3.53,2.78,4.64,4.88C476.8,355.86,477.36,358.32,477.36,361.18"></path> <path d="M518.55,357.57c-1.33-3.29-3.41-5.83-6.23-7.62c-2.82-1.79-6.39-2.68-10.69-2.68c-3.79,0-7.14,0.79-10.04,2.34 c-2.88,1.55-5.12,3.75-6.71,6.57c-1.57,2.84-2.38,6.15-2.38,9.94s0.79,6.98,2.34,9.78c1.57,2.8,3.81,4.96,6.71,6.51 c2.92,1.53,6.37,2.3,10.34,2.3c3.45,0,6.51-0.56,9.19-1.69c2.7-1.13,4.96-2.72,6.81-4.76l-6.31-6.23 c-2.48,2.48-5.34,3.73-8.61,3.73c-1.75,0-3.31-0.42-4.64-1.25c-1.33-0.85-2.36-2.04-3.08-3.57c-0.26-0.54-0.46-1.13-0.63-1.75 h25.51C520.43,364.75,519.88,360.88,518.55,357.57z M494.4,362.8c0.14-0.89,0.36-1.71,0.69-2.46c0.63-1.47,1.47-2.62,2.58-3.47 c1.11-0.83,2.46-1.25,4.03-1.25c1.37,0,2.56,0.28,3.61,0.87c1.03,0.6,1.83,1.43,2.4,2.48c0.56,1.07,0.83,2.34,0.79,3.83H494.4z"></path> <path d="M567.34,336.02c3.71,0,7.12,0.6,10.2,1.83c3.11,1.23,5.81,2.94,8.15,5.16c2.32,2.22,4.13,4.8,5.42,7.76 c1.29,2.96,1.94,6.19,1.94,9.66s-0.65,6.79-1.94,9.8c-1.29,3-3.1,5.63-5.42,7.86c-2.34,2.24-5.04,3.97-8.15,5.22 c-3.1,1.25-6.49,1.85-10.2,1.85s-7.06-0.63-10.18-1.85c-3.13-1.25-5.85-2.98-8.17-5.22c-2.34-2.24-4.13-4.86-5.42-7.86 c-1.29-3-1.94-6.27-1.94-9.8s0.65-6.71,1.94-9.7c1.29-2.98,3.1-5.56,5.42-7.76c2.32-2.2,5.06-3.89,8.17-5.12 C560.29,336.65,563.68,336.02,567.34,336.02 M567.49,346.38c-1.75,0-3.45,0.34-5.06,1.05c-1.61,0.71-3,1.69-4.21,2.98 c-1.21,1.29-2.14,2.78-2.82,4.48c-0.69,1.69-1.01,3.57-1.01,5.61s0.34,3.85,1.01,5.61c0.69,1.73,1.63,3.25,2.84,4.54 c1.23,1.29,2.62,2.3,4.21,3.02c1.57,0.73,3.25,1.09,5.02,1.09s3.43-0.36,4.98-1.09c1.55-0.73,2.92-1.73,4.09-3.02 c1.17-1.29,2.1-2.8,2.74-4.54c0.67-1.73,0.99-3.61,0.99-5.61s-0.32-3.89-0.99-5.61c-0.67-1.69-1.57-3.19-2.74-4.48 c-1.17-1.29-2.54-2.28-4.09-2.98c-1.55-0.71-3.23-1.05-4.98-1.05H567.49z"></path> <path d="M663.7,332.65c-1.21-1.21-2.74-1.81-4.58-1.81s-3.39,0.6-4.58,1.81c-1.19,1.19-1.79,2.72-1.79,4.58 c0,1.85,0.6,3.33,1.79,4.52c1.21,1.21,2.74,1.79,4.58,1.79s3.39-0.58,4.58-1.79c1.19-1.19,1.79-2.7,1.79-4.52 C665.49,335.42,664.89,333.84,663.7,332.65 M653.07,347.68v36.61h12v-36.61H653.07"></path> <path d="M613.4,346.87v2.5h8.15v7.88h-8.15v27.06h-12v-27.06h-4.96v-7.88h4.96v-3.39c0-2.72,0.62-5,1.88-6.86s2.92-3.27,5.06-4.23 c2.14-0.97,4.52-1.45,7.18-1.45c1.31,0,2.62,0.12,3.97,0.36c1.33,0.24,2.58,0.6,3.71,1.05l-1.55,9.01 c-0.69-0.28-1.37-0.5-2.08-0.69c-0.71-0.18-1.37-0.26-2-0.26c-0.83,0-1.53,0.14-2.14,0.4c-0.6,0.26-1.09,0.71-1.45,1.33 c-0.36,0.6-0.54,1.33-0.54,2.2L613.4,346.87z"></path> <path d="M640.39,346.87v2.5h8.15v7.88h-8.15v27.06h-12v-27.06h-4.96v-7.88h4.96v-3.39c0-2.72,0.63-5,1.88-6.86 c1.25-1.85,2.92-3.27,5.06-4.23c2.14-0.97,4.52-1.45,7.18-1.45c1.31,0,2.62,0.12,3.97,0.36c1.35,0.24,2.58,0.6,3.71,1.05 l-1.55,9.01c-0.69-0.28-1.39-0.5-2.08-0.69c-0.71-0.18-1.37-0.26-2-0.26c-0.83,0-1.53,0.14-2.14,0.4 c-0.6,0.26-1.09,0.71-1.45,1.33c-0.36,0.6-0.54,1.33-0.54,2.2L640.39,346.87z"></path> <path d="M697.98,360.84c-0.81-1.21-1.81-2.16-3.02-2.82c-1.21-0.67-2.58-0.99-4.17-0.99c-1.45,0-2.72,0.38-3.83,1.11 c-1.11,0.75-1.98,1.79-2.58,3.15c-0.6,1.35-0.91,2.94-0.91,4.74s0.3,3.39,0.91,4.76c0.6,1.35,1.47,2.42,2.58,3.19 c1.11,0.77,2.38,1.15,3.83,1.15c1.63,0,3.04-0.34,4.23-1.01c1.19-0.69,2.18-1.73,2.94-3.19l8.89,5.08 c-1.45,2.76-3.61,4.9-6.51,6.41s-6.29,2.28-10.18,2.28c-3.89,0-7.06-0.77-9.9-2.3c-2.84-1.53-5.06-3.71-6.61-6.51 s-2.34-6.05-2.34-9.76c0-3.71,0.79-7.12,2.38-9.94c1.59-2.82,3.79-5.02,6.65-6.57c2.86-1.55,6.17-2.34,9.98-2.34 s6.92,0.73,9.76,2.2s5.06,3.57,6.65,6.27l-8.75,5.08V360.84z"></path> <path d="M718.46,330.86c1.85,0,3.39,0.6,4.58,1.79c1.19,1.19,1.79,2.72,1.79,4.58c0,1.85-0.6,3.31-1.79,4.52 c-1.19,1.21-2.72,1.79-4.58,1.79c-1.85,0-3.39-0.6-4.58-1.79s-1.79-2.7-1.79-4.52s0.6-3.39,1.79-4.58S716.61,330.86,718.46,330.86 M712.43,347.68h12v36.61h-12V347.68z"></path> <path d="M762.03,350.64c-2.76-2.34-6.71-3.51-11.84-3.51c-1.98,0-3.93,0.16-5.83,0.48s-3.77,0.79-5.58,1.39 c-1.83,0.6-3.73,1.35-5.67,2.2l3.33,8c1.98-0.99,3.93-1.73,5.83-2.24c1.9-0.5,3.61-0.75,5.16-0.75c2.3,0,4.03,0.5,5.22,1.49 c1.17,0.99,1.75,2.38,1.75,4.13v0.4h-9.56c-4.54,0.06-8,1.05-10.42,2.98c-2.42,1.96-3.63,4.66-3.63,8.15 c0,2.22,0.5,4.19,1.49,5.91c1.01,1.71,2.44,3.06,4.31,4.07c1.88,0.99,4.13,1.49,6.75,1.49c3.17,0,5.83-0.67,8-1.98 c1.19-0.73,2.22-1.63,3.04-2.72v4.15h11.88v-23.87C766.23,356.22,764.81,352.96,762.03,350.64z M753.02,374.37 c-0.71,0.75-1.55,1.33-2.58,1.73c-1.01,0.4-2.14,0.6-3.35,0.6c-1.59,0-2.8-0.38-3.67-1.13c-0.87-0.75-1.29-1.77-1.29-3.08 s0.42-2.26,1.25-2.88c0.85-0.6,2.12-0.91,3.83-0.91h7.2v3.13C754.19,372.78,753.72,373.62,753.02,374.37z"></path> <rect x="774.75" y="333.98" width="12.08" height="50.32"></rect> <polygon points="814.7,336.77 852.2,336.77 852.2,346.53 827.1,346.53 827.1,355.62 849.74,355.62 849.74,365.32 827.1,365.32 827.1,374.53 852.86,374.53 852.86,384.29 814.68,384.29 814.68,336.75 "></polygon> <path d="M883.61,347.68v4.4c-0.85-1.07-1.81-1.98-2.94-2.74c-2.14-1.43-4.74-2.12-7.76-2.08c-3.02,0-5.73,0.73-8.04,2.18 c-2.34,1.45-4.15,3.45-5.42,6.05c-1.29,2.58-1.94,5.61-1.94,9.07s0.69,6.69,2,9.34c1.33,2.64,3.19,4.7,5.56,6.17 c2.36,1.47,5.06,2.2,8.11,2.2s5.54-0.73,7.64-2.14c1.07-0.73,2.02-1.59,2.8-2.64v3.83c0,1.49-0.34,2.78-1.05,3.87 c-0.71,1.09-1.71,1.92-3.02,2.52c-1.31,0.58-2.9,0.89-4.74,0.89c-1.98,0-3.95-0.3-5.89-0.95c-1.96-0.65-3.77-1.53-5.44-2.64 l-4.19,8.13c2.08,1.41,4.54,2.56,7.36,3.47c2.82,0.89,5.85,1.35,9.05,1.35c3.99,0,7.46-0.69,10.44-2.08 c2.98-1.39,5.3-3.33,6.98-5.87c1.67-2.52,2.52-5.5,2.52-8.95v-33.37h-12H883.61z M882.66,369.45c-0.65,1.31-1.51,2.32-2.62,3.04 c-1.11,0.73-2.38,1.09-3.83,1.09c-1.45,0-2.78-0.34-3.89-1.09c-1.11-0.73-1.98-1.73-2.62-3.04c-0.63-1.33-0.95-2.84-0.95-4.56 c0-1.71,0.32-3.23,0.95-4.54c0.62-1.31,1.49-2.32,2.62-3.06c1.11-0.73,2.42-1.07,3.89-1.07s2.72,0.34,3.83,1.07 c1.11,0.73,1.98,1.75,2.62,3.06c0.62,1.31,0.95,2.82,0.95,4.54C883.61,366.61,883.31,368.12,882.66,369.45"></path> <path d="M924.24,387.96c-1.35,3.39-3.23,5.91-5.63,7.56c-2.4,1.65-5.32,2.48-8.75,2.48c-2.08,0-3.99-0.3-5.73-0.91 c-1.73-0.6-3.45-1.57-5.12-2.88l5.02-8.21c1.63,1.35,3.25,2.04,4.88,2.04c0.99,0,1.88-0.24,2.62-0.71 c0.75-0.46,1.35-1.19,1.79-2.14l0.89-1.75l-15.2-35.75h12.42l8.75,24.01l7.8-24.01h12l-15.73,40.28L924.24,387.96z"></path> <path d="M982.2,356.18c-1.43-2.82-3.43-5.02-5.97-6.57c-2.56-1.57-5.54-2.36-8.99-2.36c-3.02,0-5.65,0.77-7.82,2.28 c-1.11,0.77-2.1,1.71-2.94,2.82v-4.68h-12.06v49.78h12.06v-17.94c0.89,1.15,1.92,2.12,3.08,2.9c2.24,1.53,4.9,2.28,7.96,2.28 c3.45,0,6.43-0.77,8.91-2.3c2.52-1.53,4.46-3.71,5.83-6.51c1.39-2.8,2.08-6.05,2.08-9.7C984.34,362.33,983.63,359.01,982.2,356.18 z M971.19,370.68c-0.67,1.39-1.59,2.5-2.78,3.29c-1.21,0.79-2.58,1.17-4.17,1.17c-1.49,0-2.84-0.38-4.03-1.15 c-1.19-0.77-2.12-1.88-2.78-3.29c-0.67-1.43-0.99-3.04-0.99-4.86s0.32-3.47,0.99-4.86c0.67-1.39,1.59-2.46,2.78-3.27 c1.21-0.79,2.54-1.17,4.03-1.17c1.59,0,2.96,0.4,4.17,1.17c1.19,0.79,2.12,1.9,2.78,3.29c0.67,1.41,0.99,3,0.99,4.82 c0,1.81-0.32,3.41-0.99,4.82V370.68z"></path> <path d="M1014.44,382.33c-1.31,0.83-2.84,1.43-4.58,1.88c-1.75,0.44-3.51,0.65-5.32,0.65c-2.36,0-4.48-0.44-6.31-1.33 c-1.85-0.89-3.31-2.2-4.36-3.93c-1.07-1.75-1.59-3.87-1.59-6.41v-15.93h-5.08v-7.88h5.08v-10.1h12v10.1h9.5v7.88h-9.5v14.03 c0,1.41,0.3,2.42,0.89,3.06c0.58,0.63,1.39,0.93,2.44,0.89c0.62,0,1.33-0.12,2.1-0.34c0.79-0.24,1.59-0.52,2.44-0.89 L1014.44,382.33"></path> <path d="M1026.24,330.86c1.85,0,3.39,0.6,4.58,1.79c1.19,1.19,1.79,2.72,1.79,4.58c0,1.85-0.6,3.31-1.79,4.52 c-1.19,1.21-2.72,1.79-4.58,1.79c-1.85,0-3.39-0.6-4.58-1.79s-1.79-2.7-1.79-4.52s0.6-3.39,1.79-4.58 S1024.38,330.86,1026.24,330.86 M1020.21,347.68h12v36.61h-12V347.68z"></path> <path d="M1069.81,350.64c-2.78-2.34-6.73-3.49-11.84-3.49c-2,0-3.93,0.16-5.83,0.46c-1.92,0.32-3.77,0.79-5.61,1.39 c-1.83,0.63-3.71,1.35-5.67,2.2l3.33,8c1.98-1.01,3.93-1.75,5.83-2.26c1.92-0.5,3.63-0.73,5.16-0.73c2.3,0,4.05,0.48,5.22,1.49 c1.17,1.01,1.75,2.38,1.75,4.15v0.4h-9.56c-4.52,0.04-7.98,1.05-10.42,2.98c-2.42,1.96-3.63,4.66-3.63,8.15 c0,2.22,0.5,4.19,1.49,5.91c1.01,1.71,2.42,3.06,4.31,4.07c1.88,0.99,4.13,1.49,6.75,1.49c3.17,0,5.83-0.65,8-1.98 c1.21-0.73,2.22-1.63,3.06-2.72v4.15h11.86v-23.87c-0.04-4.19-1.45-7.48-4.23-9.8V350.64z M1060.8,374.37 c-0.71,0.75-1.55,1.33-2.58,1.73c-1.03,0.4-2.14,0.6-3.37,0.6c-1.59,0-2.8-0.36-3.65-1.11c-0.87-0.75-1.29-1.75-1.29-3.08 s0.42-2.26,1.27-2.88c0.85-0.6,2.1-0.91,3.83-0.91h7.2v3.13c-0.24,0.95-0.69,1.79-1.39,2.54L1060.8,374.37z"></path> <path d="M1119.71,361.18v23.11h-12v-19.74c0-2.08-0.56-3.73-1.71-4.96c-1.15-1.23-2.64-1.81-4.54-1.81 c-2.26,0.04-4.03,0.85-5.32,2.42c-1.05,1.27-1.67,2.82-1.88,4.68v19.42h-12.08v-36.61h12.08v5.93c1.09-1.81,2.46-3.25,4.09-4.31 c2.24-1.45,4.92-2.18,8.04-2.18c2.66,0,5.02,0.56,7.02,1.73c2.02,1.15,3.55,2.78,4.64,4.88c1.09,2.1,1.63,4.58,1.63,7.44 L1119.71,361.18z"></path> <path d="M1178.89,368.72c1.25-0.63,2.36-1.39,3.35-2.3c3.45-3.1,5.16-7.42,5.16-12.98s-1.71-9.4-5.16-12.3 c-3.45-2.92-8.33-4.38-14.66-4.38h-21.37v47.54h12.42v-13.23h9.17l6.96,13.23h14.05l-9.94-15.59H1178.89z M1158.62,346.53h8.95 c2.58,0,4.56,0.6,5.93,1.81c1.39,1.21,2.08,3.02,2.08,5.42c0,2.4-0.69,4.36-2.08,5.63c-1.39,1.27-3.37,1.92-5.93,1.92h-8.95 V346.53z"></path> <path d="M1228.38,357.57c-1.33-3.31-3.43-5.85-6.25-7.62c-2.82-1.79-6.37-2.68-10.69-2.68c-3.79,0-7.14,0.79-10.04,2.36 c-2.9,1.55-5.12,3.75-6.71,6.57c-1.59,2.84-2.36,6.15-2.36,9.94c0,3.79,0.79,6.96,2.34,9.78c1.55,2.8,3.79,4.98,6.71,6.51 c2.9,1.55,6.37,2.3,10.34,2.3c3.43,0,6.49-0.56,9.19-1.69c2.68-1.13,4.96-2.72,6.81-4.74l-6.31-6.25 c-2.48,2.48-5.36,3.73-8.61,3.73c-1.75,0-3.33-0.42-4.66-1.27c-1.33-0.83-2.36-2.02-3.08-3.55c-0.26-0.54-0.46-1.13-0.62-1.75 h25.53c0.28-4.42-0.24-8.31-1.59-11.59V357.57z M1204.21,362.8c0.14-0.89,0.38-1.71,0.71-2.46c0.6-1.47,1.47-2.62,2.58-3.47 c1.11-0.83,2.46-1.25,4.03-1.25c1.35,0,2.56,0.3,3.59,0.89c1.05,0.58,1.85,1.41,2.42,2.48c0.56,1.05,0.83,2.34,0.79,3.81h-14.09 H1204.21z"></path> <path d="M1264.6,350.64c-2.78-2.34-6.71-3.49-11.84-3.49c-1.98,0-3.93,0.16-5.83,0.46c-1.9,0.32-3.77,0.79-5.6,1.39 c-1.81,0.63-3.71,1.35-5.67,2.2l3.33,8c2-1.01,3.93-1.75,5.83-2.26c1.9-0.5,3.61-0.73,5.16-0.73c2.3,0,4.03,0.48,5.22,1.49 c1.17,1.01,1.75,2.38,1.75,4.15v0.4h-9.56c-4.52,0.04-7.98,1.05-10.4,2.98c-2.42,1.96-3.63,4.66-3.63,8.15 c0,2.22,0.5,4.19,1.49,5.91s2.42,3.06,4.31,4.07c1.88,0.99,4.11,1.49,6.75,1.49c3.17,0,5.83-0.65,7.98-1.98 c1.21-0.73,2.22-1.61,3.06-2.7v4.13h11.88v-23.87c-0.04-4.19-1.45-7.48-4.25-9.8V350.64z M1255.58,374.37 c-0.71,0.75-1.57,1.33-2.58,1.73c-1.01,0.4-2.14,0.6-3.35,0.6c-1.59,0-2.8-0.36-3.65-1.11c-0.87-0.75-1.29-1.75-1.29-3.08 s0.4-2.26,1.25-2.88c0.85-0.6,2.12-0.91,3.83-0.91h7.18v3.13c-0.22,0.95-0.69,1.79-1.39,2.54V374.37z"></path> <rect x="1277.32" y="333.98" width="12.08" height="50.32"></rect> <polygon points="1317.26,336.77 1354.76,336.77 1354.76,346.53 1329.66,346.53 1329.66,355.62 1352.3,355.62 1352.3,365.32 1329.66,365.32 1329.66,374.53 1355.43,374.53 1355.43,384.29 1317.24,384.29 1317.24,336.75 "></polygon> <path d="M1387.52,359.07c-2.26-1.17-4.4-2.08-6.37-2.72c-2-0.63-3.75-0.95-5.28-0.95c-0.99,0-1.81,0.2-2.48,0.58 c-0.67,0.38-0.99,0.99-0.99,1.79s0.46,1.45,1.39,1.94c0.93,0.48,2.12,0.93,3.59,1.35s3.02,0.89,4.64,1.39 c1.63,0.5,3.19,1.17,4.64,2c1.47,0.83,2.66,1.94,3.57,3.33c0.91,1.37,1.35,3.13,1.35,5.26c0,2.48-0.67,4.62-2,6.37 c-1.33,1.75-3.17,3.11-5.48,4.01c-2.34,0.91-5,1.35-8.04,1.35c-3.04,0-6.03-0.42-8.89-1.29c-2.86-0.87-5.4-2.14-7.66-3.87 l3.79-7.66c2.12,1.45,4.31,2.56,6.57,3.37c2.26,0.79,4.42,1.19,6.45,1.19c0.77,0,1.43-0.08,2-0.26s1.01-0.44,1.35-0.79 c0.34-0.34,0.5-0.79,0.5-1.33c0-0.87-0.44-1.55-1.35-2.08c-0.91-0.52-2.08-0.97-3.53-1.35c-1.45-0.38-2.98-0.83-4.62-1.33 c-1.63-0.5-3.15-1.17-4.58-2c-1.43-0.83-2.58-1.94-3.49-3.29c-0.91-1.35-1.35-3.1-1.35-5.22c0-2.54,0.67-4.68,2-6.41 s3.13-3.06,5.36-3.97c2.24-0.91,4.8-1.35,7.7-1.35c2.66,0,5.3,0.34,7.94,1.05c2.62,0.71,5.06,1.75,7.32,3.15l-4.07,7.72 L1387.52,359.07z"></path> <path d="M1421.98,382.33c-1.33,0.83-2.84,1.43-4.58,1.88c-1.73,0.44-3.51,0.65-5.32,0.65c-2.36,0-4.46-0.44-6.31-1.33 c-1.85-0.89-3.31-2.2-4.35-3.93c-1.07-1.75-1.59-3.87-1.59-6.41v-15.93h-5.08v-7.88h5.08v-10.1h12v10.1h9.52v7.88h-9.52v14.03 c0,1.41,0.3,2.42,0.89,3.06c0.58,0.63,1.41,0.93,2.44,0.89c0.65,0,1.33-0.12,2.12-0.34c0.77-0.24,1.57-0.52,2.44-0.89l2.3,8.33 H1421.98z"></path> <path d="M1456.14,350.64c-2.78-2.34-6.73-3.49-11.84-3.49c-1.98,0-3.93,0.16-5.83,0.46c-1.9,0.32-3.77,0.79-5.6,1.39 c-1.81,0.63-3.71,1.35-5.67,2.2l3.33,8c2-1.01,3.93-1.75,5.83-2.26s3.61-0.73,5.16-0.73c2.3,0,4.03,0.48,5.22,1.49 c1.17,1.01,1.75,2.38,1.75,4.15v0.4h-9.56c-4.52,0.04-7.98,1.05-10.42,2.98c-2.42,1.96-3.63,4.66-3.63,8.15 c0,2.22,0.5,4.19,1.49,5.91s2.42,3.06,4.31,4.07c1.88,0.99,4.13,1.49,6.75,1.49c3.17,0,5.83-0.65,8-1.98 c1.19-0.73,2.2-1.61,3.04-2.7v4.13h11.88v-23.87c-0.04-4.19-1.45-7.48-4.23-9.8V350.64z M1447.12,374.37 c-0.71,0.75-1.55,1.33-2.58,1.73c-1.01,0.4-2.14,0.6-3.35,0.6c-1.59,0-2.8-0.36-3.65-1.11c-0.87-0.75-1.29-1.75-1.29-3.08 s0.4-2.26,1.25-2.88c0.85-0.6,2.12-0.91,3.83-0.91h7.18v3.13c-0.22,0.95-0.69,1.79-1.39,2.54V374.37z"></path> <path d="M1492.37,382.33c-1.31,0.83-2.84,1.43-4.58,1.88c-1.75,0.44-3.51,0.65-5.32,0.65c-2.36,0-4.48-0.44-6.31-1.33 c-1.85-0.89-3.31-2.2-4.36-3.93c-1.07-1.75-1.59-3.87-1.59-6.41v-15.93h-5.08v-7.88h5.08v-10.1h12v10.1h9.5v7.88h-9.5v14.03 c0,1.41,0.3,2.42,0.89,3.06c0.58,0.63,1.39,0.93,2.44,0.89c0.62,0,1.33-0.12,2.1-0.34c0.79-0.24,1.59-0.52,2.44-0.89 L1492.37,382.33z"></path> <path d="M1531,357.57c-1.33-3.31-3.41-5.85-6.25-7.62c-2.82-1.79-6.37-2.68-10.69-2.68c-3.79,0-7.14,0.79-10.04,2.36 c-2.9,1.55-5.12,3.75-6.71,6.57c-1.57,2.84-2.36,6.15-2.36,9.94c0,3.79,0.79,6.96,2.34,9.78c1.55,2.8,3.81,4.98,6.71,6.51 c2.9,1.55,6.37,2.3,10.34,2.3c3.45,0,6.49-0.56,9.19-1.69c2.68-1.13,4.96-2.72,6.81-4.74l-6.31-6.25 c-2.48,2.48-5.36,3.73-8.61,3.73c-1.75,0-3.33-0.42-4.64-1.27c-1.33-0.83-2.36-2.02-3.08-3.55c-0.26-0.54-0.46-1.13-0.63-1.75 h25.51c0.28-4.42-0.24-8.31-1.59-11.59V357.57z M1506.84,362.8c0.14-0.89,0.38-1.71,0.71-2.46c0.62-1.47,1.47-2.62,2.58-3.47 c1.11-0.83,2.46-1.25,4.03-1.25c1.35,0,2.56,0.3,3.61,0.89c1.03,0.58,1.83,1.41,2.4,2.48c0.56,1.05,0.85,2.34,0.79,3.81H1506.84z"></path> <path d="M1592.15,341.14c-3.35-2.92-8.04-4.38-14.09-4.38h-20.91v47.52h12.42v-13.21h8.49c6.05,0,10.75-1.55,14.09-4.66 s5.02-7.42,5.02-12.98C1597.17,347.88,1595.5,344.05,1592.15,341.14 M1583.3,359.41c-1.37,1.27-3.35,1.92-5.87,1.92h-7.86v-14.8 h7.86c2.52,0,4.5,0.6,5.87,1.83c1.37,1.21,2.08,3.02,2.08,5.42C1585.38,356.18,1584.67,358.14,1583.3,359.41"></path> <rect x="1603.6" y="333.98" width="12.08" height="50.32"></rect> <path d="M1653.63,350.64c-2.78-2.34-6.73-3.49-11.84-3.49c-1.98,0-3.93,0.16-5.83,0.46c-1.9,0.32-3.77,0.79-5.58,1.39 c-1.83,0.63-3.73,1.35-5.67,2.2l3.33,8c2-1.01,3.93-1.75,5.83-2.26s3.61-0.73,5.16-0.73c2.3,0,4.03,0.48,5.22,1.49 c1.17,1.01,1.75,2.38,1.75,4.15v0.4h-9.56c-4.52,0.04-7.98,1.05-10.42,2.98c-2.42,1.96-3.63,4.66-3.63,8.15 c0,2.22,0.5,4.19,1.49,5.91s2.42,3.06,4.31,4.07c1.88,0.99,4.13,1.49,6.75,1.49c3.17,0,5.83-0.65,8-1.98 c1.19-0.73,2.2-1.61,3.04-2.7v4.13h11.88v-23.87c-0.04-4.19-1.45-7.48-4.23-9.8L1653.63,350.64z M1644.61,374.37 c-0.71,0.75-1.55,1.33-2.58,1.73c-1.01,0.4-2.14,0.6-3.35,0.6c-1.59,0-2.8-0.36-3.65-1.11c-0.87-0.75-1.29-1.75-1.29-3.08 s0.4-2.26,1.25-2.88c0.85-0.6,2.12-0.91,3.83-0.91h7.18v3.13c-0.22,0.95-0.69,1.79-1.39,2.54V374.37z"></path> <path d="M1689.88,382.33c-1.33,0.83-2.84,1.43-4.58,1.88c-1.73,0.44-3.51,0.65-5.32,0.65c-2.36,0-4.46-0.44-6.31-1.33 c-1.88-0.89-3.33-2.2-4.38-3.93c-1.05-1.75-1.59-3.87-1.59-6.41v-15.93h-5.08v-7.88h5.08v-10.1h12v10.1h9.52v7.88h-9.52v14.03 c0,1.41,0.3,2.42,0.89,3.06c0.58,0.63,1.41,0.93,2.46,0.89c0.63,0,1.33-0.12,2.1-0.34c0.77-0.24,1.57-0.52,2.44-0.89 L1689.88,382.33"></path> <path d="M1709.82,346.87v2.5h8.15v7.88h-8.15v27.06h-12v-27.06h-4.96v-7.88h4.96v-3.39c0-2.72,0.62-5,1.88-6.86 c1.23-1.85,2.92-3.27,5.06-4.23c2.12-0.97,4.52-1.45,7.18-1.45c1.31,0,2.62,0.12,3.97,0.36c1.35,0.24,2.56,0.6,3.69,1.05 l-1.55,9.01c-0.69-0.28-1.37-0.5-2.08-0.69c-0.69-0.18-1.37-0.26-2-0.26c-0.81,0-1.53,0.14-2.14,0.4 c-0.63,0.26-1.11,0.71-1.45,1.33c-0.36,0.6-0.54,1.33-0.54,2.2L1709.82,346.87z"></path> <path d="M1738.85,347.27c4.03,0,7.54,0.77,10.54,2.3c3,1.53,5.34,3.71,7.02,6.51s2.5,6.09,2.5,9.84s-0.83,7.04-2.5,9.86 c-1.67,2.82-4.01,5.02-7.02,6.57s-6.51,2.34-10.54,2.34c-4.03,0-7.54-0.79-10.54-2.34s-5.34-3.75-6.98-6.57 c-1.65-2.82-2.48-6.11-2.48-9.86s0.83-7.04,2.48-9.84c1.65-2.8,3.97-4.98,6.98-6.51C1731.31,348.04,1734.82,347.27,1738.85,347.27 M1738.85,356.83c-1.59,0-2.96,0.38-4.13,1.15c-1.17,0.77-2.1,1.85-2.74,3.25c-0.67,1.41-0.99,3.02-0.99,4.88s0.32,3.47,0.99,4.84 c0.65,1.37,1.57,2.46,2.74,3.23c1.17,0.77,2.56,1.15,4.13,1.15s2.96-0.38,4.17-1.15c1.19-0.77,2.12-1.83,2.78-3.23 c0.65-1.37,0.99-3,0.99-4.84s-0.32-3.49-0.99-4.88c-0.67-1.39-1.59-2.48-2.78-3.25C1741.84,357.21,1740.44,356.83,1738.85,356.83"></path> <path d="M1788.98,347.13v10.93c-2.4-0.26-4.5-0.06-6.27,0.63c-1.79,0.69-3.17,1.71-4.15,3.08c-0.77,1.09-1.21,2.34-1.39,3.77 v18.77h-12.08V347.7h12.08v6.05c1.05-1.79,2.4-3.23,3.99-4.31c2.22-1.51,4.82-2.28,7.8-2.28L1788.98,347.13z"></path> <path d="M1856.4,361.18v23.11h-12.08v-19.74c0-2.12-0.54-3.77-1.63-4.98c-1.09-1.21-2.56-1.79-4.42-1.79 c-2.12,0.04-3.81,0.85-5.06,2.42c-1.23,1.55-1.88,3.55-1.88,5.99v18.11h-12.06v-19.74c0-2.12-0.54-3.77-1.63-4.98 c-1.09-1.21-2.56-1.79-4.42-1.79c-2.12,0.04-3.81,0.85-5.08,2.42c-1.27,1.55-1.9,3.55-1.9,5.99v18.11h-12v-36.61h12v5.97 c1.07-1.81,2.42-3.29,4.07-4.33c2.2-1.45,4.84-2.18,7.86-2.18c2.68,0,4.98,0.56,6.96,1.73c1.98,1.15,3.49,2.78,4.58,4.88 c0.26,0.5,0.48,1.03,0.69,1.57c1.19-2.62,2.84-4.64,4.96-6.01c2.22-1.45,4.84-2.18,7.86-2.18c2.68,0,4.98,0.56,6.96,1.73 c1.98,1.15,3.49,2.78,4.58,4.88C1855.85,355.84,1856.4,358.32,1856.4,361.18z"></path> </g> <g> <path d="M416.37,234.28c-0.89-0.91-2.06-1.35-3.51-1.35s-2.58,0.44-3.51,1.35c-0.93,0.91-1.37,2.1-1.37,3.53 c0,1.43,0.44,2.58,1.37,3.51c0.93,0.91,2.1,1.37,3.51,1.37c1.41,0,2.62-0.46,3.51-1.37c0.93-0.93,1.37-2.12,1.37-3.51 S417.3,235.19,416.37,234.28 M427.54,234.28c-0.93-0.91-2.1-1.35-3.49-1.35s-2.58,0.44-3.51,1.35c-0.91,0.91-1.39,2.1-1.39,3.53 c0,1.43,0.48,2.58,1.39,3.51c0.93,0.91,2.1,1.37,3.51,1.37s2.56-0.46,3.49-1.37c0.93-0.93,1.39-2.12,1.39-3.51 S428.47,235.19,427.54,234.28"></path> <path d="M544.84,254.22v22.72H443.37c-1.75,0-3.08-0.16-4.01-0.46c-0.95-0.32-1.57-0.91-1.92-1.73c-0.34-0.85-0.5-1.98-0.5-3.43 v-22.38h-10.44v2.14c-3.49,0.16-6.75,0.67-9.8,1.49c-3.29,0.89-6.15,2.12-8.59,3.69c-2.44,1.57-4.36,3.53-5.73,5.87 c-1.39,2.32-2.08,5-2.08,8.04c0,2.66,0.52,5,1.57,7.02c1.03,2,2.46,3.69,4.25,5.02c1.81,1.33,3.91,2.34,6.31,3 c2.42,0.69,4.94,1.03,7.6,1.03c2.22,0,4.46-0.24,6.71-0.75c1.39-0.3,2.74-0.71,4.03-1.19c0.97,1.05,2.12,1.94,3.41,2.64 c2.5,1.39,5.56,2.08,9.17,2.08h111.84v-34.8H544.84z M424.56,275.25c-1.43,0.3-2.94,0.46-4.58,0.46c-1.9,0-3.55-0.2-4.96-0.58 c-1.41-0.42-2.46-1.03-3.19-1.88c-0.71-0.85-1.09-1.85-1.09-3.02c0-1.31,0.42-2.48,1.25-3.53c0.85-1.05,2.04-1.94,3.57-2.68 c1.53-0.75,3.35-1.33,5.4-1.75c1.69-0.36,3.55-0.6,5.52-0.71v9.76c0,1.15,0.06,2.28,0.18,3.33 C425.99,274.89,425.28,275.09,424.56,275.25z"></path> <path d="M562.61,296.68c2.3-0.04,4.09-0.3,5.38-0.75c1.29-0.44,2.2-1.15,2.74-2.08s0.81-2.1,0.81-3.49v-36.15h10.44v36.15 c0,3.53-0.71,6.59-2.14,9.23c-1.43,2.62-3.43,4.68-6.03,6.13c-2.6,1.47-5.69,2.3-9.25,2.48l-1.98-11.53H562.61z"></path> <path d="M719.67,237.47c-0.89-0.91-2.08-1.35-3.53-1.35c-1.45,0-2.56,0.44-3.49,1.35c-0.93,0.91-1.39,2.08-1.39,3.53 s0.46,2.58,1.39,3.49c0.93,0.91,2.08,1.39,3.49,1.39c1.41,0,2.62-0.46,3.53-1.39c0.91-0.93,1.37-2.1,1.37-3.49 S720.58,238.38,719.67,237.47 M730.84,237.47c-0.93-0.91-2.1-1.35-3.49-1.35c-1.39,0-2.58,0.44-3.49,1.35 c-0.93,0.91-1.39,2.08-1.39,3.53s0.46,2.58,1.39,3.49c0.93,0.93,2.1,1.39,3.49,1.39c1.39,0,2.58-0.46,3.49-1.39 c0.93-0.93,1.39-2.1,1.39-3.49S731.77,238.38,730.84,237.47"></path> <path d="M939.5,230.29v46.66h-95.77c1.75-1.61,3.17-3.37,4.25-5.22c1.15-2,1.71-4.05,1.71-6.17c0-2.58-0.85-4.8-2.58-6.69 c-1.71-1.88-4.09-3.35-7.16-4.42c-3.06-1.05-6.61-1.59-10.69-1.59c-2.52,0-4.84,0.2-6.96,0.6c-2.1,0.4-4.05,0.91-5.87,1.49 l-6.31,10.3c1.21,4.4,3.17,8.29,5.89,11.67h-69.96c-2.4,0-4.64-0.04-6.71-0.14c-0.73-0.02-1.43-0.06-2.14-0.1 c1.51-2.26,2.26-4.94,2.26-8.04c0-3.1-0.79-6.05-2.42-8.49c-1.59-2.44-3.75-4.33-6.43-5.71c-2.68-1.35-5.67-2.04-8.91-2.04 c-3.25,0-6.23,0.69-8.91,2.08c-2.68,1.39-4.84,3.29-6.41,5.69c-1.59,2.42-2.38,5.22-2.38,8.37c0,3.15,0.77,5.79,2.3,8.13 c-0.63,0.02-1.27,0.06-1.92,0.08c-2.2,0.08-4.54,0.14-7.02,0.14h-96.23v-46.66h-10.44v58.73h106.68c3.99,0,7.96-0.18,11.98-0.58 c3.99-0.38,7.8-1.01,11.41-1.92l0.97-0.24c2.3,0.63,4.74,1.17,7.4,1.57c5.14,0.79,10.77,1.19,16.94,1.19h68.97 c1.98,0,4.21-0.3,6.67-0.85c2.1-0.46,4.25-1.13,6.43-1.98c4.31,1.88,9.17,2.82,14.5,2.82h107.3v-58.73H939.5V230.29z M727.37,273.07c-1.11,1.13-2.84,2.14-5.22,2.98c-0.14,0.06-0.3,0.1-0.46,0.16c-0.06,0-0.1-0.04-0.16-0.06 c-2.46-0.89-4.25-1.92-5.42-3.08c-1.15-1.17-1.73-2.44-1.73-3.79c0-1.13,0.3-2.16,0.93-3.08c0.6-0.93,1.49-1.69,2.6-2.28 c1.13-0.58,2.42-0.89,3.87-0.89c1.45,0,2.7,0.26,3.79,0.81c1.09,0.54,1.94,1.29,2.54,2.26c0.63,0.95,0.91,2.02,0.91,3.19 c0,1.39-0.54,2.66-1.65,3.79H727.37z M827.66,275.01c-2.58-1.29-4.68-3.13-6.33-5.46c-0.85-1.21-1.55-2.52-2.12-3.95 c1.39-0.5,2.74-0.89,4.09-1.13c1.59-0.32,3.31-0.46,5.12-0.46c2.14,0,4.01,0.18,5.67,0.6c1.65,0.4,2.94,0.91,3.83,1.49 c0.91,0.58,1.37,1.21,1.37,1.9c0,0.58-0.4,1.27-1.19,2.08c-0.79,0.79-1.85,1.59-3.19,2.42c-1.33,0.81-2.82,1.55-4.44,2.24 c-0.62,0.26-1.27,0.5-1.9,0.73c-0.3-0.14-0.6-0.26-0.89-0.4L827.66,275.01z"></path> <rect x="958.61" y="230.29" width="10.44" height="58.73"></rect> <path d="M1440.69,266.6c-0.69-2.46-1.67-4.62-2.98-6.47c-1.31-1.85-2.94-3.31-4.88-4.36c-1.94-1.05-4.19-1.59-6.71-1.59 s-4.72,0.44-6.69,1.29c-1.96,0.87-3.73,2-5.32,3.43c-1.59,1.43-3.02,2.98-4.33,4.68c-1.33,1.69-2.54,3.39-3.65,5.04 c-1.23,1.88-2.42,3.43-3.55,4.68c-1.11,1.27-2.36,2.2-3.69,2.78c-1.33,0.58-2.94,0.89-4.86,0.89H1267.8v-5.08 c0-3.02-0.44-5.91-1.33-8.65s-2.2-5.16-3.97-7.28c-1.75-2.12-4.03-3.79-6.75-5.02c-2.74-1.21-5.95-1.83-9.66-1.83 s-6.75,0.56-9.54,1.65c-2.78,1.11-5.2,2.62-7.26,4.52c-2.06,1.9-3.79,4.03-5.22,6.41c-1.43,2.38-2.58,4.86-3.43,7.44 c-0.79,2.3-1.35,4.56-1.71,6.73c-0.34-0.3-0.58-0.65-0.77-1.07c-0.34-0.85-0.5-1.98-0.5-3.43v-13.77h-10.38v13.77 c0,1.45-0.18,2.58-0.54,3.43c-0.36,0.85-1.01,1.41-1.92,1.73c-0.89,0.3-2.26,0.46-4.05,0.46h-189.04v-22.72h-10.42v36.15 c0,1.39-0.28,2.58-0.83,3.49c-0.54,0.93-1.45,1.61-2.74,2.06c-1.29,0.46-3.08,0.71-5.38,0.75l1.98,11.53 c3.57-0.18,6.65-1.01,9.25-2.48c2.6-1.47,4.62-3.51,6.05-6.13c1.43-2.62,2.14-5.71,2.14-9.23v-1.35h189.04 c3.61,0,6.67-0.69,9.19-2.08c1.31-0.73,2.46-1.61,3.45-2.68c0.83,1.05,1.79,1.96,2.9,2.68c2.14,1.39,4.76,2.08,7.88,2.08h169.83 c3.06,0,5.75-0.48,8-1.43c2.14-0.91,4.17-2.26,6.09-4.09c0.95,0.83,1.92,1.57,2.94,2.26c1.92,1.31,4.11,2.4,6.57,3.27 c2.46,0.85,5.34,1.43,8.65,1.75c3.29,0.3,7.18,0.34,11.67,0.06c1.21-2.48,2.14-5.18,2.78-8.11c0.62-2.92,0.95-5.65,0.95-8.17 C1441.72,271.74,1441.38,269.08,1440.69,266.6z M1257.38,276.95h-29.56c0.1-0.42,0.22-0.85,0.34-1.25c0.75-2.34,1.75-4.42,3-6.25 c1.27-1.81,2.74-3.39,4.42-4.68c1.67-1.29,3.47-2.3,5.36-2.98c1.9-0.71,3.83-1.05,5.77-1.05c2.14,0,3.99,0.42,5.61,1.25 c1.59,0.85,2.84,2.08,3.73,3.71c0.89,1.63,1.33,3.69,1.33,6.17V276.95z M1430.85,278.98c-1.65,0-3.19,0-4.6-0.08 c-3.13-0.16-5.79-0.63-7.98-1.43c-1.35-0.48-2.58-1.11-3.65-1.88c1.49-2.26,2.88-4.09,4.19-5.48c1.31-1.39,2.54-2.42,3.71-3.08 c1.17-0.67,2.34-0.99,3.47-0.99c1.67,0,2.96,0.69,3.89,2.08c0.93,1.39,1.39,3.55,1.39,6.47 C1431.28,276.06,1431.14,277.53,1430.85,278.98z"></path> <path d="M1493.64,234.28c-0.93-0.91-2.1-1.35-3.49-1.35s-2.58,0.44-3.49,1.35c-0.93,0.91-1.39,2.08-1.39,3.53s0.46,2.58,1.39,3.49 c0.93,0.93,2.1,1.39,3.49,1.39s2.58-0.46,3.49-1.39c0.93-0.93,1.39-2.1,1.39-3.49S1494.57,235.19,1493.64,234.28 M1482.49,234.28 c-0.91-0.91-2.08-1.35-3.53-1.35s-2.58,0.44-3.49,1.35c-0.93,0.91-1.39,2.08-1.39,3.53s0.46,2.58,1.39,3.49 c0.93,0.93,2.08,1.39,3.49,1.39c1.41,0,2.62-0.46,3.53-1.39c0.89-0.93,1.35-2.1,1.35-3.49S1483.38,235.19,1482.49,234.28"></path> <path d="M1742.88,236.08c-1.11-1.11-2.54-1.65-4.31-1.65s-3.13,0.54-4.25,1.65c-1.13,1.13-1.71,2.54-1.71,4.31 c0,1.77,0.58,3.15,1.71,4.27c1.13,1.13,2.56,1.69,4.25,1.69c1.69,0,3.21-0.56,4.31-1.69c1.11-1.13,1.67-2.56,1.67-4.27 C1744.56,238.68,1743.99,237.21,1742.88,236.08"></path> <path d="M1859.1,266.6c-0.69-2.46-1.67-4.62-2.98-6.49c-1.31-1.83-2.94-3.31-4.88-4.36c-1.96-1.05-4.19-1.59-6.71-1.59 s-4.72,0.42-6.69,1.29c-1.96,0.87-3.73,2-5.3,3.43c-1.59,1.41-3.04,2.96-4.33,4.68c-1.33,1.69-2.56,3.39-3.69,5.04 c-1.21,1.88-2.38,3.43-3.53,4.68c-1.13,1.27-2.36,2.2-3.69,2.78c-1.33,0.58-2.94,0.89-4.84,0.89h-61.6c-1.75,0-3.1-0.16-4.05-0.46 c-0.97-0.32-1.59-0.91-1.96-1.73c-0.32-0.85-0.48-1.98-0.48-3.43v-17.1h-10.38v17.1c0,1.45-0.18,2.58-0.54,3.43 c-0.36,0.83-0.99,1.41-1.92,1.73c-0.89,0.3-2.24,0.46-4.07,0.46h-70.79v-5.08c0-3.02-0.44-5.91-1.33-8.65 c-0.87-2.74-2.2-5.16-3.95-7.3c-1.77-2.12-4.01-3.79-6.75-5.02c-2.72-1.21-5.97-1.83-9.66-1.83c-3.69,0-6.75,0.56-9.54,1.67 c-2.78,1.11-5.2,2.6-7.26,4.5c-2.06,1.92-3.81,4.05-5.22,6.41c-1.43,2.38-2.56,4.86-3.43,7.44c-0.77,2.3-1.35,4.54-1.71,6.71 c-0.32-0.28-0.58-0.62-0.75-1.05c-0.34-0.85-0.52-1.98-0.52-3.43v-13.77h-10.38v13.77c0,1.45-0.16,2.58-0.54,3.43 c-0.36,0.83-0.99,1.41-1.9,1.73c-0.91,0.3-2.26,0.46-4.05,0.46h-80.17c-1.77,0-3.13-0.16-4.05-0.46c-0.91-0.32-1.55-0.91-1.9-1.73 c-0.32-0.85-0.5-1.98-0.5-3.43v-22.38h-10.44v2.14c-3.51,0.16-6.77,0.67-9.8,1.49c-3.29,0.89-6.13,2.12-8.57,3.69 c-2.46,1.57-4.38,3.53-5.75,5.87c-1.37,2.32-2.06,5-2.06,8.04c0,2.66,0.5,5,1.55,7.02c1.05,2,2.46,3.69,4.27,5.02 c1.81,1.33,3.91,2.34,6.31,3c2.4,0.69,4.92,1.03,7.6,1.03c2.2,0,4.44-0.24,6.71-0.75c1.39-0.3,2.72-0.71,4.01-1.19 c0.97,1.05,2.1,1.94,3.41,2.64c2.5,1.39,5.56,2.08,9.19,2.08h80.17c3.61,0,6.67-0.69,9.17-2.08c1.31-0.71,2.46-1.61,3.45-2.66 c0.83,1.05,1.79,1.96,2.9,2.66c2.12,1.39,4.74,2.08,7.86,2.08h114.4c3.63-0.04,6.69-0.77,9.21-2.14c0.89-0.5,1.71-1.09,2.46-1.73 c0.75,0.69,1.59,1.29,2.52,1.79c2.48,1.39,5.56,2.08,9.21,2.08h61.6c3.06,0,5.73-0.48,7.98-1.43c2.16-0.91,4.21-2.26,6.13-4.09 c0.93,0.83,1.92,1.57,2.92,2.26c1.94,1.31,4.11,2.4,6.59,3.27c2.46,0.85,5.34,1.43,8.65,1.77c3.29,0.3,7.2,0.32,11.67,0.04 c1.21-2.48,2.14-5.18,2.78-8.09c0.63-2.92,0.93-5.65,0.93-8.17C1860.11,271.72,1859.76,269.06,1859.1,266.6z M1490.65,275.25 c-1.41,0.3-2.94,0.46-4.58,0.46c-1.9,0-3.55-0.2-4.96-0.58c-1.39-0.42-2.44-1.03-3.19-1.88c-0.73-0.85-1.09-1.85-1.09-3.02 c0-1.31,0.42-2.48,1.27-3.53c0.83-1.05,2.02-1.94,3.55-2.68c1.55-0.75,3.35-1.33,5.4-1.75c1.69-0.36,3.55-0.6,5.52-0.71v9.76 c0,1.15,0.06,2.28,0.18,3.33C1492.11,274.89,1491.4,275.09,1490.65,275.25 M1646.21,276.95h-29.56c0.1-0.42,0.22-0.85,0.36-1.25 c0.75-2.34,1.73-4.42,3.02-6.25c1.25-1.81,2.72-3.39,4.4-4.68c1.67-1.29,3.47-2.28,5.36-2.96c1.9-0.71,3.81-1.07,5.77-1.07 c2.12,0,3.99,0.42,5.59,1.25c1.61,0.85,2.84,2.08,3.73,3.71c0.89,1.63,1.33,3.69,1.33,6.17V276.95z M1844.66,278.88 c-3.13-0.16-5.81-0.63-8.02-1.43c-1.33-0.48-2.56-1.09-3.63-1.88c1.47-2.26,2.86-4.07,4.17-5.48c1.33-1.39,2.56-2.42,3.73-3.08 c1.19-0.67,2.34-0.99,3.47-0.99c1.67,0,2.98,0.71,3.91,2.08c0.91,1.39,1.39,3.55,1.39,6.49c0,1.45-0.16,2.92-0.42,4.4 C1847.59,278.98,1846.05,278.96,1844.66,278.88z"></path> <rect x="71.19" y="142" class="st3" width="1788.92" height="249.95"></rect> <path d="M543.72,297.47c-0.89-0.91-2.06-1.35-3.51-1.35c-1.45,0-2.58,0.44-3.51,1.35c-0.93,0.91-1.37,2.1-1.37,3.53 c0,1.43,0.44,2.58,1.37,3.51c0.93,0.91,2.1,1.37,3.51,1.37c1.41,0,2.62-0.46,3.51-1.37c0.93-0.93,1.37-2.12,1.37-3.51 C545.09,299.61,544.65,298.38,543.72,297.47 M554.89,297.47c-0.93-0.91-2.1-1.35-3.49-1.35c-1.39,0-2.58,0.44-3.51,1.35 c-0.91,0.91-1.39,2.1-1.39,3.53c0,1.43,0.48,2.58,1.39,3.51c0.93,0.91,2.1,1.37,3.51,1.37c1.41,0,2.56-0.46,3.49-1.37 c0.93-0.93,1.39-2.12,1.39-3.51C556.28,299.61,555.82,298.38,554.89,297.47"></path> </g> <g> <polygon class="st4" points="132.59,227.76 132.59,385.75 58.34,385.75 58.34,281.93 130.56,229.23 "></polygon> <polygon class="st5" points="215.18,213.08 215.18,236.29 213.12,234.77 199.93,225.16 199.93,385.75 132.59,385.75 132.59,152.84 "></polygon> <polygon points="311.03,308.73 311.03,385.75 201.99,385.75 201.99,229.17 213.12,237.3 215.18,238.79 217.21,240.28 "></polygon> </g> </g> <g class="st0"> <g class="st1"> <polygon class="st6" points="452.65,-262.03 489.36,-262.03 489.36,-252.99 476.54,-252.99 476.54,-219.23 465.36,-219.23 465.36,-252.99 452.65,-252.99 "></polygon> <path class="st6" d="M525.44-240.05v20.82h-10.87V-237c0-1.87-0.51-3.36-1.52-4.47c-1.02-1.09-2.38-1.65-4.08-1.65 c-2,0.05-3.58,0.76-4.74,2.18c-1.16,1.4-1.74,3.19-1.74,5.41v16.3h-10.87v-45.3h10.87v17.66c1-1.62,2.23-2.9,3.72-3.87 c2.03-1.31,4.45-1.96,7.21-1.96c2.45,0,4.56,0.53,6.35,1.56c1.8,1.03,3.18,2.5,4.17,4.39 C524.93-244.84,525.44-242.63,525.44-240.05"></path> <path class="st6" d="M562.52-243.3c-1.2-2.96-3.07-5.25-5.61-6.86c-2.54-1.62-5.75-2.41-9.62-2.41c-3.41,0-6.43,0.71-9.04,2.11 c-2.6,1.4-4.61,3.38-6.04,5.92c-1.42,2.56-2.14,5.54-2.14,8.95c0,3.41,0.71,6.28,2.11,8.8c1.42,2.52,3.43,4.47,6.04,5.86 c2.63,1.38,5.74,2.07,9.31,2.07c3.1,0,5.86-0.51,8.28-1.52c2.43-1.02,4.46-2.45,6.13-4.28l-5.68-5.61 c-2.23,2.23-4.81,3.36-7.75,3.36c-1.58,0-2.98-0.38-4.17-1.13c-1.2-0.76-2.12-1.83-2.78-3.21c-0.24-0.49-0.42-1.02-0.56-1.58 h22.96C564.21-236.84,563.72-240.32,562.52-243.3z M540.78-238.6c0.13-0.8,0.33-1.54,0.62-2.21c0.56-1.32,1.32-2.36,2.32-3.12 c1-0.74,2.21-1.13,3.63-1.13c1.23,0,2.31,0.25,3.25,0.78c0.93,0.54,1.65,1.29,2.16,2.23c0.51,0.96,0.74,2.11,0.71,3.45H540.78z"></path> <path class="st6" d="M606.44-262.7c3.34,0,6.41,0.54,9.18,1.65c2.8,1.11,5.23,2.65,7.33,4.65c2.09,2,3.72,4.32,4.88,6.99 c1.16,2.67,1.74,5.57,1.74,8.69c0,3.12-0.58,6.12-1.74,8.82c-1.16,2.7-2.8,5.06-4.88,7.08c-2.11,2.01-4.54,3.58-7.33,4.7 c-2.8,1.13-5.84,1.67-9.18,1.67c-3.34,0-6.35-0.56-9.17-1.67c-2.81-1.13-5.26-2.69-7.35-4.7c-2.11-2.01-3.72-4.37-4.88-7.08 c-1.16-2.7-1.74-5.64-1.74-8.82s0.58-6.04,1.74-8.73c1.16-2.69,2.8-5.01,4.88-6.99c2.09-1.98,4.56-3.5,7.35-4.61 C600.09-262.14,603.14-262.7,606.44-262.7 M606.57-253.37c-1.58,0-3.1,0.31-4.56,0.94c-1.45,0.64-2.7,1.52-3.79,2.69 c-1.09,1.16-1.92,2.5-2.54,4.03s-0.91,3.21-0.91,5.05s0.31,3.47,0.91,5.05c0.62,1.56,1.47,2.92,2.56,4.08 c1.11,1.16,2.36,2.07,3.79,2.72c1.42,0.65,2.92,0.98,4.52,0.98c1.6,0,3.09-0.33,4.48-0.98c1.4-0.65,2.63-1.56,3.68-2.72 c1.05-1.16,1.89-2.52,2.47-4.08c0.6-1.56,0.89-3.25,0.89-5.05s-0.29-3.5-0.89-5.05c-0.6-1.52-1.42-2.87-2.47-4.03 c-1.05-1.16-2.29-2.05-3.68-2.69c-1.4-0.64-2.9-0.94-4.48-0.94H606.57z"></path> <path class="st6" d="M693.19-265.73c-1.09-1.09-2.47-1.63-4.12-1.63c-1.65,0-3.05,0.54-4.12,1.63c-1.07,1.07-1.62,2.45-1.62,4.12 c0,1.67,0.54,2.99,1.62,4.07c1.09,1.09,2.47,1.62,4.12,1.62c1.65,0,3.05-0.53,4.12-1.62c1.07-1.07,1.62-2.43,1.62-4.07 C694.8-263.25,694.26-264.66,693.19-265.73 M683.62-252.21v32.96h10.8v-32.96H683.62"></path> <path class="st6" d="M647.9-252.94v2.25h7.33v7.1h-7.33v24.36h-10.8v-24.36h-4.47v-7.1h4.47v-3.05c0-2.45,0.56-4.5,1.69-6.17 c1.13-1.67,2.63-2.94,4.56-3.81c1.92-0.87,4.07-1.31,6.46-1.31c1.18,0,2.36,0.11,3.58,0.33c1.2,0.22,2.32,0.54,3.34,0.94 l-1.4,8.11c-0.62-0.25-1.23-0.45-1.87-0.62s-1.23-0.24-1.8-0.24c-0.74,0-1.38,0.13-1.92,0.36c-0.54,0.24-0.98,0.64-1.31,1.2 c-0.33,0.54-0.49,1.2-0.49,1.98L647.9-252.94z"></path> <path class="st6" d="M672.2-252.94v2.25h7.33v7.1h-7.33v24.36h-10.8v-24.36h-4.47v-7.1h4.47v-3.05c0-2.45,0.56-4.5,1.69-6.17 c1.13-1.67,2.63-2.94,4.56-3.81c1.92-0.87,4.07-1.31,6.46-1.31c1.18,0,2.36,0.11,3.58,0.33c1.22,0.22,2.32,0.54,3.34,0.94 l-1.4,8.11c-0.62-0.25-1.25-0.45-1.87-0.62c-0.64-0.16-1.23-0.24-1.8-0.24c-0.74,0-1.38,0.13-1.92,0.36 c-0.54,0.24-0.98,0.64-1.31,1.2c-0.33,0.54-0.49,1.2-0.49,1.98L672.2-252.94z"></path> <path class="st6" d="M724.04-240.36c-0.73-1.09-1.63-1.94-2.72-2.54c-1.09-0.6-2.32-0.89-3.76-0.89c-1.31,0-2.45,0.34-3.45,1 c-1,0.67-1.78,1.62-2.32,2.83c-0.54,1.22-0.82,2.65-0.82,4.27s0.27,3.05,0.82,4.28c0.54,1.22,1.32,2.18,2.32,2.87 c1,0.69,2.14,1.03,3.45,1.03c1.47,0,2.74-0.31,3.81-0.91c1.07-0.62,1.96-1.56,2.65-2.87l8,4.57c-1.31,2.49-3.25,4.41-5.86,5.77 s-5.66,2.05-9.17,2.05c-3.5,0-6.35-0.69-8.91-2.07c-2.56-1.38-4.56-3.34-5.95-5.86c-1.4-2.52-2.11-5.45-2.11-8.78 c0-3.34,0.71-6.41,2.14-8.95s3.41-4.52,5.99-5.92c2.58-1.4,5.55-2.11,8.98-2.11c3.43,0,6.23,0.65,8.78,1.98 c2.56,1.32,4.56,3.21,5.99,5.64l-7.88,4.57V-240.36z"></path> <path class="st6" d="M742.48-267.35c1.67,0,3.05,0.54,4.12,1.62c1.07,1.07,1.62,2.45,1.62,4.12c0,1.67-0.54,2.98-1.62,4.07 c-1.07,1.09-2.45,1.62-4.12,1.62s-3.05-0.54-4.12-1.62c-1.07-1.07-1.62-2.43-1.62-4.07c0-1.63,0.54-3.05,1.62-4.12 C739.43-266.81,740.81-267.35,742.48-267.35 M737.06-252.21h10.8v32.96h-10.8V-252.21z"></path> <path class="st6" d="M781.71-249.54c-2.49-2.11-6.04-3.16-10.65-3.16c-1.78,0-3.54,0.15-5.25,0.44c-1.71,0.29-3.39,0.71-5.03,1.25 c-1.65,0.54-3.36,1.22-5.1,1.98l2.99,7.21c1.78-0.89,3.54-1.56,5.25-2.01s3.25-0.67,4.65-0.67c2.07,0,3.63,0.45,4.7,1.34 c1.05,0.89,1.58,2.14,1.58,3.72v0.36h-8.6c-4.08,0.05-7.21,0.94-9.38,2.69c-2.18,1.76-3.27,4.19-3.27,7.33 c0,2,0.45,3.78,1.34,5.32c0.91,1.54,2.2,2.76,3.88,3.67c1.69,0.89,3.72,1.34,6.08,1.34c2.85,0,5.25-0.6,7.21-1.78 c1.07-0.65,2-1.47,2.74-2.45v3.74h10.69v-21.49C785.48-244.52,784.21-247.46,781.71-249.54z M773.59-228.18 c-0.64,0.67-1.4,1.2-2.32,1.56c-0.91,0.36-1.92,0.54-3.01,0.54c-1.43,0-2.52-0.34-3.3-1.02s-1.16-1.6-1.16-2.78 c0-1.18,0.38-2.03,1.13-2.6c0.76-0.54,1.91-0.82,3.45-0.82h6.48v2.81C774.65-229.61,774.23-228.85,773.59-228.18z"></path> <rect x="793.16" y="-264.54" class="st6" width="10.87" height="45.3"></rect> <polygon class="st6" points="829.12,-262.03 862.88,-262.03 862.88,-253.25 840.28,-253.25 840.28,-245.06 860.66,-245.06 860.66,-236.33 840.28,-236.33 840.28,-228.04 863.47,-228.04 863.47,-219.25 829.1,-219.25 829.1,-262.05 "></polygon> <path class="st6" d="M891.15-252.21v3.96c-0.76-0.96-1.63-1.78-2.65-2.47c-1.92-1.29-4.27-1.91-6.99-1.87 c-2.72,0-5.15,0.65-7.24,1.96c-2.11,1.31-3.74,3.1-4.88,5.45c-1.16,2.32-1.74,5.05-1.74,8.17c0,3.12,0.62,6.03,1.8,8.4 c1.2,2.38,2.87,4.23,5.01,5.55c2.12,1.32,4.56,1.98,7.3,1.98s4.99-0.65,6.88-1.92c0.96-0.65,1.82-1.43,2.52-2.38v3.45 c0,1.34-0.31,2.5-0.94,3.48c-0.64,0.98-1.54,1.72-2.72,2.27c-1.18,0.53-2.61,0.8-4.27,0.8c-1.78,0-3.56-0.27-5.3-0.85 c-1.76-0.58-3.39-1.38-4.9-2.38l-3.78,7.31c1.87,1.27,4.08,2.31,6.62,3.12c2.54,0.8,5.26,1.22,8.15,1.22 c3.59,0,6.72-0.62,9.4-1.87c2.69-1.25,4.77-2.99,6.28-5.28c1.51-2.27,2.27-4.96,2.27-8.06v-30.04h-10.8H891.15z M890.3-232.61 c-0.58,1.18-1.36,2.09-2.36,2.74s-2.14,0.98-3.45,0.98s-2.5-0.31-3.5-0.98c-1-0.65-1.78-1.56-2.36-2.74 c-0.56-1.2-0.85-2.56-0.85-4.1s0.29-2.9,0.85-4.08c0.56-1.18,1.34-2.09,2.36-2.76c1-0.65,2.18-0.96,3.5-0.96s2.45,0.31,3.45,0.96 c1,0.65,1.78,1.58,2.36,2.76c0.56,1.18,0.85,2.54,0.85,4.08S890.88-233.81,890.3-232.61"></path> <path class="st6" d="M927.73-215.95c-1.22,3.05-2.9,5.32-5.06,6.81c-2.16,1.49-4.79,2.23-7.88,2.23c-1.87,0-3.59-0.27-5.15-0.82 c-1.56-0.54-3.1-1.42-4.61-2.6l4.52-7.39c1.47,1.22,2.92,1.83,4.39,1.83c0.89,0,1.69-0.22,2.36-0.64 c0.67-0.42,1.22-1.07,1.62-1.92l0.8-1.58l-13.69-32.18h11.18l7.88,21.62l7.02-21.62h10.8l-14.16,36.26L927.73-215.95z"></path> <path class="st6" d="M979.91-244.55c-1.29-2.54-3.09-4.52-5.37-5.92c-2.31-1.42-4.99-2.12-8.1-2.12c-2.72,0-5.08,0.69-7.04,2.05 c-1,0.69-1.89,1.54-2.65,2.54v-4.21H945.9v44.81h10.85v-16.15c0.8,1.03,1.72,1.91,2.78,2.61c2.01,1.38,4.41,2.05,7.17,2.05 c3.1,0,5.79-0.69,8.02-2.07c2.27-1.38,4.01-3.34,5.25-5.86c1.25-2.52,1.87-5.45,1.87-8.73 C981.83-239.02,981.2-242.01,979.91-244.55z M970-231.5c-0.6,1.25-1.43,2.25-2.5,2.96c-1.09,0.71-2.32,1.05-3.76,1.05 c-1.34,0-2.56-0.34-3.63-1.03c-1.07-0.69-1.91-1.69-2.5-2.96c-0.6-1.29-0.89-2.74-0.89-4.37s0.29-3.12,0.89-4.37 c0.6-1.25,1.43-2.21,2.5-2.94c1.09-0.71,2.29-1.05,3.63-1.05c1.43,0,2.67,0.36,3.76,1.05c1.07,0.71,1.91,1.71,2.5,2.96 c0.6,1.27,0.89,2.7,0.89,4.34c0,1.63-0.29,3.07-0.89,4.34V-231.5z"></path> <path class="st6" d="M1008.93-221.01c-1.18,0.74-2.56,1.29-4.12,1.69c-1.58,0.4-3.16,0.58-4.79,0.58c-2.12,0-4.03-0.4-5.68-1.2 c-1.67-0.8-2.98-1.98-3.92-3.54c-0.96-1.58-1.43-3.48-1.43-5.77v-14.34h-4.57v-7.1h4.57v-9.09h10.8v9.09h8.55v7.1h-8.55v12.63 c0,1.27,0.27,2.18,0.8,2.76c0.53,0.56,1.25,0.83,2.2,0.8c0.56,0,1.2-0.11,1.89-0.31c0.71-0.22,1.43-0.47,2.2-0.8L1008.93-221.01"></path> <path class="st6" d="M1019.55-267.35c1.67,0,3.05,0.54,4.12,1.62c1.07,1.07,1.62,2.45,1.62,4.12c0,1.67-0.54,2.98-1.62,4.07 c-1.07,1.09-2.45,1.62-4.12,1.62s-3.05-0.54-4.12-1.62s-1.62-2.43-1.62-4.07c0-1.63,0.54-3.05,1.62-4.12 C1016.5-266.81,1017.88-267.35,1019.55-267.35 M1014.12-252.21h10.8v32.96h-10.8V-252.21z"></path> <path class="st6" d="M1058.77-249.54c-2.5-2.11-6.06-3.14-10.65-3.14c-1.8,0-3.54,0.15-5.25,0.42c-1.72,0.29-3.39,0.71-5.05,1.25 c-1.65,0.56-3.34,1.22-5.1,1.98l2.99,7.21c1.78-0.91,3.54-1.58,5.25-2.03c1.72-0.45,3.27-0.65,4.65-0.65 c2.07,0,3.65,0.44,4.7,1.34s1.58,2.14,1.58,3.74v0.36h-8.6c-4.07,0.04-7.19,0.94-9.38,2.69c-2.18,1.76-3.27,4.19-3.27,7.33 c0,2,0.45,3.78,1.34,5.32c0.91,1.54,2.18,2.76,3.88,3.67c1.69,0.89,3.72,1.34,6.08,1.34c2.85,0,5.25-0.58,7.21-1.78 c1.09-0.65,2-1.47,2.76-2.45v3.74h10.67v-21.49c-0.04-3.78-1.31-6.73-3.81-8.82V-249.54z M1050.66-228.18 c-0.64,0.67-1.4,1.2-2.32,1.56s-1.92,0.54-3.03,0.54c-1.43,0-2.52-0.33-3.29-1c-0.78-0.67-1.16-1.58-1.16-2.78 c0-1.2,0.38-2.03,1.14-2.6c0.76-0.54,1.89-0.82,3.45-0.82h6.48v2.81c-0.22,0.85-0.62,1.62-1.25,2.29L1050.66-228.18z"></path> <path class="st6" d="M1103.7-240.05v20.8h-10.8v-17.77c0-1.87-0.51-3.36-1.54-4.47c-1.03-1.11-2.38-1.63-4.08-1.63 c-2.03,0.04-3.63,0.76-4.79,2.18c-0.94,1.14-1.51,2.54-1.69,4.21v17.48h-10.87v-32.96h10.87v5.34c0.98-1.63,2.21-2.92,3.68-3.88 c2.01-1.31,4.43-1.96,7.24-1.96c2.4,0,4.52,0.51,6.32,1.56c1.82,1.03,3.19,2.5,4.17,4.39c0.98,1.89,1.47,4.12,1.47,6.7 L1103.7-240.05z"></path> <path class="st6" d="M1156.97-233.26c1.13-0.56,2.12-1.25,3.01-2.07c3.1-2.8,4.65-6.68,4.65-11.69s-1.54-8.46-4.65-11.07 c-3.1-2.63-7.5-3.94-13.2-3.94h-19.24v42.8h11.18v-11.91h8.26l6.26,11.91h12.65l-8.95-14.03H1156.97z M1138.73-253.25h8.06 c2.32,0,4.1,0.54,5.34,1.63c1.25,1.09,1.87,2.72,1.87,4.88s-0.62,3.92-1.87,5.06c-1.25,1.14-3.03,1.72-5.34,1.72h-8.06V-253.25z"></path> <path class="st6" d="M1201.53-243.3c-1.2-2.98-3.09-5.26-5.63-6.86c-2.54-1.62-5.74-2.41-9.62-2.41c-3.41,0-6.43,0.71-9.04,2.12 c-2.61,1.4-4.61,3.38-6.04,5.92c-1.43,2.56-2.12,5.54-2.12,8.95s0.71,6.26,2.11,8.8c1.4,2.52,3.41,4.48,6.04,5.86 c2.61,1.4,5.74,2.07,9.31,2.07c3.09,0,5.84-0.51,8.28-1.52c2.41-1.02,4.47-2.45,6.13-4.27l-5.68-5.63 c-2.23,2.23-4.83,3.36-7.75,3.36c-1.58,0-2.99-0.38-4.19-1.14c-1.2-0.74-2.12-1.82-2.78-3.19c-0.24-0.49-0.42-1.02-0.56-1.58 h22.98c0.25-3.97-0.22-7.48-1.43-10.44V-243.3z M1179.77-238.6c0.13-0.8,0.34-1.54,0.64-2.21c0.54-1.32,1.32-2.36,2.32-3.12 c1-0.74,2.21-1.13,3.63-1.13c1.22,0,2.31,0.27,3.23,0.8c0.94,0.53,1.67,1.27,2.18,2.23c0.51,0.94,0.74,2.11,0.71,3.43h-12.69 H1179.77z"></path> <path class="st6" d="M1234.13-249.54c-2.5-2.11-6.04-3.14-10.65-3.14c-1.78,0-3.54,0.15-5.25,0.42c-1.71,0.29-3.39,0.71-5.05,1.25 c-1.63,0.56-3.34,1.22-5.1,1.98l2.99,7.21c1.8-0.91,3.54-1.58,5.25-2.03s3.25-0.65,4.65-0.65c2.07,0,3.63,0.44,4.7,1.34 c1.05,0.91,1.58,2.14,1.58,3.74v0.36h-8.6c-4.07,0.04-7.19,0.94-9.37,2.69c-2.18,1.76-3.27,4.19-3.27,7.33 c0,2,0.45,3.78,1.34,5.32c0.89,1.54,2.18,2.76,3.88,3.67c1.69,0.89,3.7,1.34,6.08,1.34c2.85,0,5.25-0.58,7.19-1.78 c1.09-0.65,2-1.45,2.76-2.43v3.72h10.69v-21.49c-0.04-3.78-1.31-6.73-3.83-8.82V-249.54z M1226.01-228.18 c-0.64,0.67-1.42,1.2-2.32,1.56c-0.91,0.36-1.92,0.54-3.01,0.54c-1.43,0-2.52-0.33-3.29-1c-0.78-0.67-1.16-1.58-1.16-2.78 c0-1.2,0.36-2.03,1.13-2.6c0.76-0.54,1.91-0.82,3.45-0.82h6.46v2.81c-0.2,0.85-0.62,1.62-1.25,2.29V-228.18z"></path> <rect x="1245.58" y="-264.54" class="st6" width="10.87" height="45.3"></rect> <polygon class="st6" points="1281.54,-262.03 1315.3,-262.03 1315.3,-253.25 1292.7,-253.25 1292.7,-245.06 1313.08,-245.06 1313.08,-236.33 1292.7,-236.33 1292.7,-228.04 1315.9,-228.04 1315.9,-219.25 1281.52,-219.25 1281.52,-262.05 "></polygon> <path class="st6" d="M1344.79-241.96c-2.03-1.05-3.96-1.87-5.74-2.45c-1.8-0.56-3.38-0.85-4.76-0.85c-0.89,0-1.63,0.18-2.23,0.53 c-0.6,0.34-0.89,0.89-0.89,1.62c0,0.73,0.42,1.31,1.25,1.74c0.83,0.44,1.91,0.83,3.23,1.22c1.32,0.38,2.72,0.8,4.17,1.25 c1.47,0.45,2.87,1.05,4.17,1.8c1.33,0.74,2.4,1.74,3.21,2.99c0.82,1.23,1.22,2.81,1.22,4.74c0,2.23-0.6,4.16-1.8,5.74 c-1.2,1.58-2.85,2.8-4.94,3.61c-2.11,0.82-4.5,1.22-7.24,1.22s-5.43-0.38-8-1.16c-2.58-0.78-4.86-1.92-6.9-3.48l3.41-6.9 c1.91,1.31,3.88,2.31,5.92,3.03c2.03,0.71,3.97,1.07,5.81,1.07c0.69,0,1.29-0.07,1.8-0.24c0.51-0.16,0.91-0.4,1.22-0.71 c0.31-0.31,0.45-0.71,0.45-1.2c0-0.78-0.4-1.4-1.22-1.87c-0.82-0.47-1.87-0.87-3.18-1.22c-1.31-0.34-2.69-0.74-4.16-1.2 c-1.47-0.45-2.83-1.05-4.12-1.8c-1.29-0.74-2.32-1.74-3.14-2.96c-0.82-1.22-1.22-2.8-1.22-4.7c0-2.29,0.6-4.21,1.8-5.77 c1.2-1.56,2.81-2.76,4.83-3.58c2.01-0.82,4.32-1.22,6.93-1.22c2.4,0,4.77,0.31,7.15,0.94c2.36,0.64,4.56,1.58,6.59,2.83 l-3.67,6.95L1344.79-241.96z"></path> <path class="st6" d="M1375.81-221.01c-1.2,0.74-2.56,1.29-4.12,1.69s-3.16,0.58-4.79,0.58c-2.12,0-4.01-0.4-5.68-1.2 c-1.67-0.8-2.98-1.98-3.92-3.54c-0.96-1.58-1.43-3.48-1.43-5.77v-14.34h-4.57v-7.1h4.57v-9.09h10.8v9.09h8.57v7.1h-8.57v12.63 c0,1.27,0.27,2.18,0.8,2.76c0.53,0.56,1.27,0.83,2.2,0.8c0.58,0,1.2-0.11,1.91-0.31c0.69-0.22,1.42-0.47,2.2-0.8l2.07,7.5H1375.81 z"></path> <path class="st6" d="M1406.56-249.54c-2.5-2.11-6.06-3.14-10.65-3.14c-1.78,0-3.54,0.15-5.25,0.42c-1.71,0.29-3.39,0.71-5.05,1.25 c-1.63,0.56-3.34,1.22-5.1,1.98l2.99,7.21c1.8-0.91,3.54-1.58,5.25-2.03s3.25-0.65,4.65-0.65c2.07,0,3.63,0.44,4.7,1.34 c1.05,0.91,1.58,2.14,1.58,3.74v0.36h-8.6c-4.07,0.04-7.19,0.94-9.38,2.69c-2.18,1.76-3.27,4.19-3.27,7.33 c0,2,0.45,3.78,1.34,5.32c0.89,1.54,2.18,2.76,3.88,3.67c1.69,0.89,3.72,1.34,6.08,1.34c2.85,0,5.25-0.58,7.21-1.78 c1.07-0.65,1.98-1.45,2.74-2.43v3.72h10.69v-21.49c-0.04-3.78-1.31-6.73-3.81-8.82V-249.54z M1398.44-228.18 c-0.64,0.67-1.4,1.2-2.32,1.56c-0.91,0.36-1.92,0.54-3.01,0.54c-1.43,0-2.52-0.33-3.29-1c-0.78-0.67-1.16-1.58-1.16-2.78 c0-1.2,0.36-2.03,1.13-2.6c0.76-0.54,1.91-0.82,3.45-0.82h6.46v2.81c-0.2,0.85-0.62,1.62-1.25,2.29V-228.18z"></path> <path class="st6" d="M1439.17-221.01c-1.18,0.74-2.56,1.29-4.12,1.69c-1.58,0.4-3.16,0.58-4.79,0.58c-2.12,0-4.03-0.4-5.68-1.2 c-1.67-0.8-2.98-1.98-3.92-3.54c-0.96-1.58-1.43-3.48-1.43-5.77v-14.34h-4.57v-7.1h4.57v-9.09h10.8v9.09h8.55v7.1h-8.55v12.63 c0,1.27,0.27,2.18,0.8,2.76c0.53,0.56,1.25,0.83,2.2,0.8c0.56,0,1.2-0.11,1.89-0.31c0.71-0.22,1.43-0.47,2.2-0.8L1439.17-221.01z"></path> <path class="st6" d="M1473.95-243.3c-1.2-2.98-3.07-5.26-5.63-6.86c-2.54-1.62-5.74-2.41-9.62-2.41c-3.41,0-6.43,0.71-9.04,2.12 c-2.61,1.4-4.61,3.38-6.04,5.92c-1.42,2.56-2.12,5.54-2.12,8.95s0.71,6.26,2.11,8.8c1.4,2.52,3.43,4.48,6.04,5.86 c2.61,1.4,5.74,2.07,9.31,2.07c3.1,0,5.84-0.51,8.28-1.52c2.41-1.02,4.47-2.45,6.13-4.27l-5.68-5.63 c-2.23,2.23-4.83,3.36-7.75,3.36c-1.58,0-2.99-0.38-4.17-1.14c-1.2-0.74-2.12-1.82-2.78-3.19c-0.24-0.49-0.42-1.02-0.56-1.58 h22.96c0.25-3.97-0.22-7.48-1.43-10.44V-243.3z M1452.21-238.6c0.13-0.8,0.34-1.54,0.64-2.21c0.56-1.32,1.32-2.36,2.32-3.12 c1-0.74,2.21-1.13,3.63-1.13c1.22,0,2.31,0.27,3.25,0.8c0.93,0.53,1.65,1.27,2.16,2.23c0.51,0.94,0.76,2.11,0.71,3.43H1452.21z"></path> <path class="st6" d="M1529-258.09c-3.01-2.63-7.24-3.94-12.69-3.94h-18.82v42.78h11.18v-11.89h7.64c5.45,0,9.67-1.4,12.69-4.19 c3.01-2.8,4.52-6.68,4.52-11.69S1532.01-255.48,1529-258.09 M1521.03-241.65c-1.23,1.14-3.01,1.72-5.28,1.72h-7.08v-13.32h7.08 c2.27,0,4.05,0.54,5.28,1.65c1.23,1.09,1.87,2.72,1.87,4.88C1522.9-244.55,1522.27-242.79,1521.03-241.65"></path> <rect x="1539.31" y="-264.54" class="st6" width="10.87" height="45.3"></rect> <path class="st6" d="M1584.34-249.54c-2.5-2.11-6.06-3.14-10.65-3.14c-1.78,0-3.54,0.15-5.25,0.42c-1.71,0.29-3.39,0.71-5.03,1.25 c-1.65,0.56-3.36,1.22-5.1,1.98l2.99,7.21c1.8-0.91,3.54-1.58,5.25-2.03c1.71-0.45,3.25-0.65,4.65-0.65c2.07,0,3.63,0.44,4.7,1.34 c1.05,0.91,1.58,2.14,1.58,3.74v0.36h-8.6c-4.07,0.04-7.19,0.94-9.38,2.69c-2.18,1.76-3.27,4.19-3.27,7.33 c0,2,0.45,3.78,1.34,5.32c0.89,1.54,2.18,2.76,3.88,3.67c1.69,0.89,3.72,1.34,6.08,1.34c2.85,0,5.25-0.58,7.21-1.78 c1.07-0.65,1.98-1.45,2.74-2.43v3.72h10.69v-21.49c-0.04-3.78-1.31-6.73-3.81-8.82L1584.34-249.54z M1576.23-228.18 c-0.64,0.67-1.4,1.2-2.32,1.56c-0.91,0.36-1.92,0.54-3.01,0.54c-1.43,0-2.52-0.33-3.29-1c-0.78-0.67-1.16-1.58-1.16-2.78 c0-1.2,0.36-2.03,1.13-2.6c0.76-0.54,1.91-0.82,3.45-0.82h6.46v2.81c-0.2,0.85-0.62,1.62-1.25,2.29V-228.18z"></path> <path class="st6" d="M1616.98-221.01c-1.2,0.74-2.56,1.29-4.12,1.69s-3.16,0.58-4.79,0.58c-2.12,0-4.01-0.4-5.68-1.2 c-1.69-0.8-2.99-1.98-3.94-3.54c-0.94-1.58-1.43-3.48-1.43-5.77v-14.34h-4.57v-7.1h4.57v-9.09h10.8v9.09h8.57v7.1h-8.57v12.63 c0,1.27,0.27,2.18,0.8,2.76c0.53,0.56,1.27,0.83,2.21,0.8c0.56,0,1.2-0.11,1.89-0.31c0.69-0.22,1.42-0.47,2.2-0.8L1616.98-221.01"></path> <path class="st6" d="M1634.93-252.94v2.25h7.33v7.1h-7.33v24.36h-10.8v-24.36h-4.47v-7.1h4.47v-3.05c0-2.45,0.56-4.5,1.69-6.17 c1.11-1.67,2.63-2.94,4.56-3.81c1.91-0.87,4.07-1.31,6.46-1.31c1.18,0,2.36,0.11,3.58,0.33c1.22,0.22,2.31,0.54,3.32,0.94 l-1.4,8.11c-0.62-0.25-1.23-0.45-1.87-0.62c-0.62-0.16-1.23-0.24-1.8-0.24c-0.73,0-1.38,0.13-1.92,0.36 c-0.56,0.24-1,0.64-1.31,1.2c-0.33,0.54-0.49,1.2-0.49,1.98L1634.93-252.94z"></path> <path class="st6" d="M1661.06-252.58c3.63,0,6.79,0.69,9.49,2.07c2.7,1.38,4.81,3.34,6.32,5.86c1.51,2.52,2.25,5.48,2.25,8.86 c0,3.38-0.74,6.33-2.25,8.88c-1.51,2.54-3.61,4.52-6.32,5.92c-2.7,1.4-5.86,2.11-9.49,2.11s-6.79-0.71-9.49-2.11 c-2.7-1.4-4.81-3.38-6.28-5.92c-1.49-2.54-2.23-5.5-2.23-8.88c0-3.38,0.74-6.33,2.23-8.86c1.49-2.52,3.58-4.48,6.28-5.86 C1654.28-251.89,1657.43-252.58,1661.06-252.58 M1661.06-243.97c-1.43,0-2.67,0.34-3.72,1.03c-1.05,0.69-1.89,1.67-2.47,2.92 c-0.6,1.27-0.89,2.72-0.89,4.39s0.29,3.12,0.89,4.36c0.58,1.23,1.42,2.21,2.47,2.9c1.05,0.69,2.31,1.03,3.72,1.03 c1.42,0,2.67-0.34,3.76-1.03c1.07-0.69,1.91-1.65,2.5-2.9c0.58-1.23,0.89-2.7,0.89-4.36s-0.29-3.14-0.89-4.39 c-0.6-1.25-1.43-2.23-2.5-2.92C1663.75-243.63,1662.5-243.97,1661.06-243.97"></path> <path class="st6" d="M1706.19-252.7v9.84c-2.16-0.24-4.05-0.05-5.64,0.56c-1.62,0.62-2.85,1.54-3.74,2.78 c-0.69,0.98-1.09,2.11-1.25,3.39v16.9h-10.87v-32.96h10.87v5.45c0.94-1.62,2.16-2.9,3.59-3.88c2-1.36,4.34-2.05,7.02-2.05 L1706.19-252.7z"></path> <path class="st6" d="M1766.88-240.05v20.8h-10.87v-17.77c0-1.91-0.49-3.39-1.47-4.48c-0.98-1.09-2.31-1.62-3.97-1.62 c-1.91,0.04-3.43,0.76-4.56,2.18c-1.11,1.4-1.69,3.19-1.69,5.39v16.3h-10.85v-17.77c0-1.91-0.49-3.39-1.47-4.48 s-2.31-1.62-3.97-1.62c-1.91,0.04-3.43,0.76-4.57,2.18c-1.14,1.4-1.71,3.19-1.71,5.39v16.3h-10.8v-32.96h10.8v5.37 c0.96-1.63,2.18-2.96,3.67-3.9c1.98-1.31,4.36-1.96,7.08-1.96c2.41,0,4.48,0.51,6.26,1.56c1.78,1.03,3.14,2.5,4.12,4.39 c0.24,0.45,0.44,0.93,0.62,1.42c1.07-2.36,2.56-4.17,4.46-5.41c2-1.31,4.36-1.96,7.08-1.96c2.41,0,4.48,0.51,6.26,1.56 c1.78,1.03,3.14,2.5,4.12,4.39C1766.39-244.86,1766.88-242.63,1766.88-240.05z"></path> </g> <g class="st1"> <path class="st6" d="M470.53-354.29c-0.8-0.82-1.85-1.22-3.16-1.22s-2.32,0.4-3.16,1.22s-1.23,1.89-1.23,3.18s0.4,2.32,1.23,3.16 c0.83,0.82,1.89,1.23,3.16,1.23s2.36-0.42,3.16-1.23c0.83-0.83,1.23-1.91,1.23-3.16S471.37-353.47,470.53-354.29 M480.59-354.29 c-0.83-0.82-1.89-1.22-3.14-1.22s-2.32,0.4-3.16,1.22c-0.82,0.82-1.25,1.89-1.25,3.18s0.44,2.32,1.25,3.16 c0.83,0.82,1.89,1.23,3.16,1.23s2.31-0.42,3.14-1.23c0.83-0.83,1.25-1.91,1.25-3.16S481.42-353.47,480.59-354.29"></path> <path class="st6" d="M586.19-336.34v20.46h-91.35c-1.58,0-2.78-0.15-3.61-0.42c-0.85-0.29-1.42-0.82-1.72-1.56 c-0.31-0.76-0.45-1.78-0.45-3.09v-20.15h-9.4v1.92c-3.14,0.15-6.08,0.6-8.82,1.34c-2.96,0.8-5.54,1.91-7.73,3.32 c-2.2,1.42-3.92,3.18-5.15,5.28c-1.25,2.09-1.87,4.5-1.87,7.24c0,2.4,0.47,4.5,1.42,6.32c0.93,1.8,2.21,3.32,3.83,4.52 c1.63,1.2,3.52,2.11,5.68,2.7c2.18,0.62,4.45,0.93,6.84,0.93c2,0,4.01-0.22,6.04-0.67c1.25-0.27,2.47-0.64,3.63-1.07 c0.87,0.94,1.91,1.74,3.07,2.38c2.25,1.25,5.01,1.87,8.26,1.87h100.68v-31.33H586.19z M477.9-317.41 c-1.29,0.27-2.65,0.42-4.12,0.42c-1.71,0-3.19-0.18-4.47-0.53c-1.27-0.38-2.21-0.93-2.87-1.69c-0.64-0.76-0.98-1.67-0.98-2.72 c0-1.18,0.38-2.23,1.13-3.18c0.76-0.94,1.83-1.74,3.21-2.41s3.01-1.2,4.86-1.58c1.52-0.33,3.19-0.54,4.97-0.64v8.78 c0,1.03,0.05,2.05,0.16,2.99C479.19-317.74,478.56-317.55,477.9-317.41z"></path> <path class="st6" d="M602.18-298.11c2.07-0.04,3.68-0.27,4.85-0.67c1.16-0.4,1.98-1.03,2.47-1.87c0.49-0.83,0.73-1.89,0.73-3.14 v-32.54h9.4v32.54c0,3.18-0.64,5.94-1.92,8.31c-1.29,2.36-3.09,4.21-5.43,5.52c-2.34,1.32-5.12,2.07-8.33,2.23l-1.78-10.38H602.18 z"></path> <path class="st6" d="M743.57-351.42c-0.8-0.82-1.87-1.22-3.18-1.22c-1.31,0-2.31,0.4-3.14,1.22c-0.83,0.82-1.25,1.87-1.25,3.18 c0,1.31,0.42,2.32,1.25,3.14s1.87,1.25,3.14,1.25c1.27,0,2.36-0.42,3.18-1.25c0.82-0.83,1.23-1.89,1.23-3.14 S744.39-350.61,743.57-351.42 M753.63-351.42c-0.83-0.82-1.89-1.22-3.14-1.22s-2.32,0.4-3.14,1.22c-0.83,0.82-1.25,1.87-1.25,3.18 c0,1.31,0.42,2.32,1.25,3.14c0.83,0.83,1.89,1.25,3.14,1.25s2.32-0.42,3.14-1.25c0.83-0.83,1.25-1.89,1.25-3.14 S754.46-350.61,753.63-351.42"></path> <path class="st6" d="M941.47-357.88v42h-86.22c1.58-1.45,2.85-3.03,3.83-4.7c1.03-1.8,1.54-3.65,1.54-5.55 c0-2.32-0.76-4.32-2.32-6.03c-1.54-1.69-3.68-3.01-6.44-3.97c-2.76-0.94-5.95-1.43-9.62-1.43c-2.27,0-4.36,0.18-6.26,0.54 c-1.89,0.36-3.65,0.82-5.28,1.34l-5.68,9.27c1.09,3.96,2.85,7.46,5.3,10.51h-62.98c-2.16,0-4.17-0.04-6.04-0.13 c-0.65-0.02-1.29-0.05-1.92-0.09c1.36-2.03,2.03-4.45,2.03-7.24c0-2.8-0.71-5.45-2.18-7.64c-1.43-2.2-3.38-3.9-5.79-5.14 c-2.41-1.22-5.1-1.83-8.02-1.83c-2.92,0-5.61,0.62-8.02,1.87c-2.41,1.25-4.36,2.96-5.77,5.12c-1.43,2.18-2.14,4.7-2.14,7.53 s0.69,5.21,2.07,7.31c-0.56,0.02-1.14,0.05-1.72,0.07c-1.98,0.07-4.08,0.13-6.32,0.13h-86.63v-42h-9.4v52.87h96.03 c3.59,0,7.17-0.16,10.78-0.53c3.59-0.34,7.02-0.91,10.27-1.72l0.87-0.22c2.07,0.56,4.27,1.05,6.66,1.42 c4.63,0.71,9.69,1.07,15.25,1.07h62.09c1.78,0,3.79-0.27,6.01-0.76c1.89-0.42,3.83-1.02,5.79-1.78c3.88,1.69,8.26,2.54,13.05,2.54 h96.6v-52.87h-9.4V-357.88z M750.51-319.37c-1,1.02-2.56,1.92-4.7,2.69c-0.13,0.05-0.27,0.09-0.42,0.15 c-0.05,0-0.09-0.04-0.15-0.05c-2.21-0.8-3.83-1.72-4.88-2.78c-1.03-1.05-1.56-2.2-1.56-3.41c0-1.02,0.27-1.94,0.83-2.78 c0.54-0.83,1.34-1.52,2.34-2.05c1.02-0.53,2.18-0.8,3.48-0.8c1.31,0,2.43,0.24,3.41,0.73c0.98,0.49,1.74,1.16,2.29,2.03 c0.56,0.85,0.82,1.82,0.82,2.87c0,1.25-0.49,2.4-1.49,3.41H750.51z M840.79-317.63c-2.32-1.16-4.21-2.81-5.7-4.92 c-0.76-1.09-1.4-2.27-1.91-3.56c1.25-0.45,2.47-0.8,3.68-1.02c1.43-0.29,2.98-0.42,4.61-0.42c1.92,0,3.61,0.16,5.1,0.54 c1.49,0.36,2.65,0.82,3.45,1.34c0.82,0.53,1.23,1.09,1.23,1.71c0,0.53-0.36,1.14-1.07,1.87c-0.71,0.71-1.67,1.43-2.87,2.18 c-1.2,0.73-2.54,1.4-3.99,2.01c-0.56,0.24-1.14,0.45-1.71,0.65c-0.27-0.13-0.54-0.24-0.8-0.36L840.79-317.63z"></path> <rect x="958.67" y="-357.88" class="st6" width="9.4" height="52.87"></rect> <path class="st6" d="M1392.65-325.2c-0.62-2.21-1.51-4.16-2.69-5.83c-1.18-1.67-2.65-2.98-4.39-3.92 c-1.74-0.94-3.78-1.43-6.04-1.43s-4.25,0.4-6.03,1.16c-1.76,0.78-3.36,1.8-4.79,3.09c-1.43,1.29-2.72,2.69-3.9,4.21 c-1.2,1.52-2.29,3.05-3.29,4.54c-1.11,1.69-2.18,3.09-3.19,4.21c-1,1.14-2.12,1.98-3.32,2.5c-1.2,0.53-2.65,0.8-4.37,0.8h-113.62 v-4.57c0-2.72-0.4-5.32-1.2-7.79c-0.8-2.47-1.98-4.65-3.58-6.55c-1.58-1.91-3.63-3.41-6.08-4.52c-2.47-1.09-5.35-1.65-8.69-1.65 c-3.34,0-6.08,0.51-8.59,1.49c-2.5,1-4.68,2.36-6.53,4.07c-1.85,1.71-3.41,3.63-4.7,5.77c-1.29,2.14-2.32,4.37-3.09,6.7 c-0.71,2.07-1.22,4.1-1.54,6.06c-0.31-0.27-0.53-0.58-0.69-0.96c-0.31-0.76-0.45-1.78-0.45-3.09v-12.4h-9.35v12.4 c0,1.31-0.16,2.32-0.49,3.09c-0.33,0.76-0.91,1.27-1.72,1.56c-0.8,0.27-2.03,0.42-3.65,0.42h-170.18v-20.46h-9.38v32.54 c0,1.25-0.25,2.32-0.74,3.14c-0.49,0.83-1.31,1.45-2.47,1.85c-1.16,0.42-2.78,0.64-4.85,0.67l1.78,10.38 c3.21-0.16,5.99-0.91,8.33-2.23c2.34-1.33,4.16-3.16,5.45-5.52c1.29-2.36,1.92-5.14,1.92-8.31v-1.22h170.18 c3.25,0,6.01-0.62,8.28-1.87c1.18-0.65,2.21-1.45,3.1-2.41c0.74,0.94,1.62,1.76,2.61,2.41c1.92,1.25,4.28,1.87,7.1,1.87h152.88 c2.76,0,5.17-0.44,7.21-1.29c1.92-0.82,3.76-2.03,5.48-3.68c0.85,0.74,1.72,1.42,2.65,2.03c1.72,1.18,3.7,2.16,5.92,2.94 c2.21,0.76,4.81,1.29,7.79,1.58c2.96,0.27,6.46,0.31,10.51,0.05c1.09-2.23,1.92-4.66,2.5-7.3c0.56-2.63,0.85-5.08,0.85-7.35 C1393.58-320.57,1393.27-322.96,1392.65-325.2z M1227.63-315.88h-26.61c0.09-0.38,0.2-0.76,0.31-1.13 c0.67-2.11,1.58-3.97,2.7-5.63c1.14-1.63,2.47-3.05,3.97-4.21c1.51-1.16,3.12-2.07,4.83-2.69c1.71-0.64,3.45-0.94,5.19-0.94 c1.92,0,3.59,0.38,5.05,1.13c1.43,0.76,2.56,1.87,3.36,3.34c0.8,1.47,1.2,3.32,1.2,5.55V-315.88z M1383.8-314.05 c-1.49,0-2.87,0-4.14-0.07c-2.81-0.15-5.21-0.56-7.19-1.29c-1.22-0.44-2.32-1-3.29-1.69c1.34-2.03,2.6-3.68,3.78-4.94 c1.18-1.25,2.29-2.18,3.34-2.78c1.05-0.6,2.11-0.89,3.12-0.89c1.51,0,2.67,0.62,3.5,1.87c0.83,1.25,1.25,3.19,1.25,5.83 C1384.18-316.68,1384.05-315.36,1383.8-314.05z"></path> <path class="st6" d="M1440.32-354.29c-0.83-0.82-1.89-1.22-3.14-1.22c-1.25,0-2.32,0.4-3.14,1.22c-0.83,0.82-1.25,1.87-1.25,3.18 s0.42,2.32,1.25,3.14c0.83,0.83,1.89,1.25,3.14,1.25c1.25,0,2.32-0.42,3.14-1.25c0.83-0.83,1.25-1.89,1.25-3.14 S1441.15-353.47,1440.32-354.29 M1430.28-354.29c-0.82-0.82-1.87-1.22-3.18-1.22c-1.31,0-2.32,0.4-3.14,1.22 c-0.83,0.82-1.25,1.87-1.25,3.18s0.42,2.32,1.25,3.14c0.83,0.83,1.87,1.25,3.14,1.25s2.36-0.42,3.18-1.25 c0.8-0.83,1.22-1.89,1.22-3.14S1431.08-353.47,1430.28-354.29"></path> <path class="st6" d="M1664.69-352.68c-1-1-2.29-1.49-3.88-1.49s-2.81,0.49-3.83,1.49c-1.02,1.02-1.54,2.29-1.54,3.88 c0,1.6,0.53,2.83,1.54,3.85c1.02,1.02,2.31,1.52,3.83,1.52c1.52,0,2.89-0.51,3.88-1.52c1-1.02,1.51-2.31,1.51-3.85 C1666.2-350.33,1665.69-351.66,1664.69-352.68"></path> <path class="st6" d="M1769.31-325.2c-0.62-2.21-1.51-4.16-2.69-5.84c-1.18-1.65-2.65-2.98-4.39-3.92 c-1.76-0.94-3.78-1.43-6.04-1.43s-4.25,0.38-6.03,1.16c-1.76,0.78-3.36,1.8-4.77,3.09c-1.43,1.27-2.74,2.67-3.9,4.21 c-1.2,1.52-2.31,3.05-3.32,4.54c-1.09,1.69-2.14,3.09-3.18,4.21c-1.02,1.14-2.12,1.98-3.32,2.5c-1.2,0.53-2.65,0.8-4.36,0.8 h-55.45c-1.58,0-2.8-0.15-3.65-0.42c-0.87-0.29-1.43-0.82-1.76-1.56c-0.29-0.76-0.44-1.78-0.44-3.09v-15.39h-9.35v15.39 c0,1.31-0.16,2.32-0.49,3.09c-0.33,0.74-0.89,1.27-1.72,1.56c-0.8,0.27-2.01,0.42-3.67,0.42h-63.73v-4.57 c0-2.72-0.4-5.32-1.2-7.79c-0.78-2.47-1.98-4.65-3.56-6.57c-1.6-1.91-3.61-3.41-6.08-4.52c-2.45-1.09-5.37-1.65-8.69-1.65 s-6.08,0.51-8.59,1.51s-4.68,2.34-6.53,4.05c-1.85,1.72-3.43,3.65-4.7,5.77c-1.29,2.14-2.31,4.37-3.09,6.7 c-0.69,2.07-1.22,4.08-1.54,6.04c-0.29-0.25-0.53-0.56-0.67-0.94c-0.31-0.76-0.47-1.78-0.47-3.09v-12.4h-9.35v12.4 c0,1.31-0.15,2.32-0.49,3.09c-0.33,0.74-0.89,1.27-1.71,1.56c-0.82,0.27-2.03,0.42-3.65,0.42h-72.17c-1.6,0-2.81-0.15-3.65-0.42 c-0.82-0.29-1.4-0.82-1.71-1.56c-0.29-0.76-0.45-1.78-0.45-3.09v-20.15h-9.4v1.92c-3.16,0.15-6.1,0.6-8.82,1.34 c-2.96,0.8-5.52,1.91-7.71,3.32c-2.21,1.42-3.94,3.18-5.17,5.28c-1.23,2.09-1.85,4.5-1.85,7.24c0,2.4,0.45,4.5,1.4,6.32 c0.94,1.8,2.21,3.32,3.85,4.52c1.63,1.2,3.52,2.11,5.68,2.7c2.16,0.62,4.43,0.93,6.84,0.93c1.98,0,3.99-0.22,6.04-0.67 c1.25-0.27,2.45-0.64,3.61-1.07c0.87,0.94,1.89,1.74,3.07,2.38c2.25,1.25,5.01,1.87,8.28,1.87h72.17c3.25,0,6.01-0.62,8.26-1.87 c1.18-0.64,2.21-1.45,3.1-2.4c0.74,0.94,1.62,1.76,2.61,2.4c1.91,1.25,4.27,1.87,7.08,1.87h102.99c3.27-0.04,6.03-0.69,8.29-1.92 c0.8-0.45,1.54-0.98,2.21-1.56c0.67,0.62,1.43,1.16,2.27,1.62c2.23,1.25,5.01,1.87,8.29,1.87h55.45c2.76,0,5.15-0.44,7.19-1.29 c1.94-0.82,3.79-2.03,5.52-3.68c0.83,0.74,1.72,1.42,2.63,2.03c1.74,1.18,3.7,2.16,5.94,2.94c2.21,0.76,4.81,1.29,7.79,1.6 c2.96,0.27,6.48,0.29,10.51,0.04c1.09-2.23,1.92-4.66,2.5-7.28c0.56-2.63,0.83-5.08,0.83-7.35 C1770.22-320.59,1769.91-322.98,1769.31-325.2z M1437.63-317.41c-1.27,0.27-2.65,0.42-4.12,0.42c-1.71,0-3.19-0.18-4.46-0.53 c-1.25-0.38-2.2-0.93-2.87-1.69c-0.65-0.76-0.98-1.67-0.98-2.72c0-1.18,0.38-2.23,1.14-3.18c0.74-0.94,1.82-1.74,3.19-2.41 c1.4-0.67,3.01-1.2,4.86-1.58c1.52-0.33,3.19-0.54,4.97-0.64v8.78c0,1.03,0.05,2.05,0.16,2.99 C1438.94-317.74,1438.3-317.55,1437.63-317.41 M1577.66-315.88h-26.61c0.09-0.38,0.2-0.76,0.33-1.13 c0.67-2.11,1.56-3.97,2.72-5.63c1.13-1.63,2.45-3.05,3.96-4.21c1.51-1.16,3.12-2.05,4.83-2.67c1.71-0.64,3.43-0.96,5.19-0.96 c1.91,0,3.59,0.38,5.03,1.13c1.45,0.76,2.56,1.87,3.36,3.34c0.8,1.47,1.2,3.32,1.2,5.55V-315.88z M1756.32-314.14 c-2.81-0.15-5.23-0.56-7.22-1.29c-1.2-0.44-2.31-0.98-3.27-1.69c1.32-2.03,2.58-3.67,3.76-4.94c1.2-1.25,2.31-2.18,3.36-2.78 c1.07-0.6,2.11-0.89,3.12-0.89c1.51,0,2.69,0.64,3.52,1.87c0.82,1.25,1.25,3.19,1.25,5.84c0,1.31-0.15,2.63-0.38,3.96 C1758.95-314.05,1757.57-314.07,1756.32-314.14z"></path> <rect x="159.8" y="-437.37" class="st3" width="1610.43" height="225.01"></rect> <path class="st6" d="M585.18-297.41c-0.8-0.82-1.85-1.22-3.16-1.22s-2.32,0.4-3.16,1.22s-1.23,1.89-1.23,3.18s0.4,2.32,1.23,3.16 c0.83,0.82,1.89,1.23,3.16,1.23s2.36-0.42,3.16-1.23c0.83-0.83,1.23-1.91,1.23-3.16S586.01-296.59,585.18-297.41 M595.23-297.41 c-0.83-0.82-1.89-1.22-3.14-1.22s-2.32,0.4-3.16,1.22c-0.82,0.82-1.25,1.89-1.25,3.18s0.44,2.32,1.25,3.16 c0.83,0.82,1.89,1.23,3.16,1.23s2.31-0.42,3.14-1.23c0.83-0.83,1.25-1.91,1.25-3.16S596.07-296.59,595.23-297.41"></path> </g> <g class="st1"> <polygon class="st4" points="215.07,-360.16 215.07,-217.94 148.22,-217.94 148.22,-311.39 213.24,-358.84 "></polygon> <polygon class="st7" points="289.41,-373.38 289.41,-352.49 287.56,-353.85 275.69,-362.51 275.69,-217.94 215.07,-217.94 215.07,-427.61 "></polygon> <polygon points="375.7,-287.27 375.7,-217.94 277.54,-217.94 277.54,-358.89 287.56,-351.58 289.41,-350.24 291.25,-348.89 "></polygon> </g> </g> </svg> 